<svg id="Layer_1" data-name="Layer 1" xmlns="http://www.w3.org/2000/svg" viewBox="0 0 712.46 385.33"><defs><style>.cls-1,.cls-15{fill:#231f20;}.cls-1{opacity:0.4;}.cls-2{fill:#221614;}.cls-3{fill:#b62d27;}.cls-4{fill:#db4849;}.cls-5{fill:#fff;}.cls-6{fill:#70bb56;}.cls-7{fill:#f8b47a;}.cls-8{fill:#f7973a;}.cls-9{fill:#ce7328;}.cls-10{fill:#a02122;}.cls-11{fill:#be1e2d;}.cls-12{fill:#f9ed32;}.cls-13{fill:#7e1416;}.cls-14{fill:#b82715;}.cls-16{fill:#5f0304;}.cls-17{fill:#231715;}.cls-18{fill:#b42b26;}.cls-19{fill:#f7b27b;}.cls-20{fill:#f49539;}.cls-21{fill:#cc7328;}.cls-22{fill:#9d2021;}.cls-23{fill:#6fb856;}.cls-24{fill:#d9494a;}.cls-25,.cls-26{fill:#00aeef;}.cls-25{opacity:0.1;}.cls-26{opacity:0.5;}</style></defs><title>forgot-password-icon-01</title><ellipse class="cls-1" cx="207.2" cy="217.97" rx="89.2" ry="32.07"/><path class="cls-2" d="M193.13,64.58s.76-3.27-2.31-9.23c0,0,4-4.43,12.69,0,0,0,4.24-1.73,4.24-10,0,0,5-2.69,12.11,11.74a15.89,15.89,0,0,0,6.55-5.58s5.57,1.6,2.69,13.91c0,0,23.85,8.28,38.47,24.76,7.66,8.63,13.66,18.66,18.71,29a121.49,121.49,0,0,1,11.22,36.41c1.72,12.23,2.09,25.24-2,37.06a47.75,47.75,0,0,1-4.86,10.14c-8.47,13.27-26.55,35-68.87,38.09-37.16,2.7-69.64-4.49-91.44-33.73-20-26.85-13.31-64.53,1.86-91.92A150.27,150.27,0,0,1,148.3,91.9C170.87,64.82,193.13,64.58,193.13,64.58Z"/><path class="cls-3" d="M195.05,56.89s3.65-2.51,8.46,1.92c0,0,5.39-2.31,6.54-10a19.93,19.93,0,0,1,7.51,11.35s5.19.19,7.31-3.27c0,0,2.69,2.75.57,8.52,0,0-10.19-2.37-29.24-1.41Z"/><path class="cls-4" d="M225.82,58.74a7.56,7.56,0,0,0-.92-2C223,59.84,218.73,60,217.78,60,220.4,61.61,223.71,60.69,225.82,58.74Z"/><path class="cls-4" d="M214,52.49a18.94,18.94,0,0,0-3.86-3.8c-1,6.41-4.84,9.07-6.12,9.79C208.44,58.21,211.27,55.71,214,52.49Z"/><path class="cls-4" d="M202.75,58c-4.41-3.47-7.67-1.25-7.67-1.25l.26,1.58C197.81,57.74,200.28,57.23,202.75,58Z"/><path class="cls-3" d="M202.17,68.46c-10.78.57-19.78,3-25.59,6a90.16,90.16,0,0,0-27.32,21.74c-9.49,11.54-21.88,37.31-24.76,53.83s-3.61,30.23,3.22,44.08,13.75,19.5,31.91,28,30.21,11.3,49.46,11c21.93-.38,47.75-5.63,61.58-15.7s17.42-17.26,21-27c2.84-7.69,8.2-19.92-.25-49C283.2,113.09,270.11,98.91,257.57,87,243.33,73.46,223.38,67.32,202.17,68.46Z"/><path class="cls-3" d="M257.87,114.85a3.86,3.86,0,0,1-.58-.78C257.21,113.92,255.41,117.18,257.87,114.85Z"/><path d="M219.38,145.42c-2.6-1.79-5.24-3.56-8-5.16a39.19,39.19,0,0,0-3.95-2.09,5.32,5.32,0,0,0-2.79-.73c-2.9.51-9.44,10.25-8.61,21.5.2,2.71,3,2.59,5.06,2.24a26.71,26.71,0,0,0,10.55-4.29,34.51,34.51,0,0,0,8.56-8.14,2.24,2.24,0,0,0,.49-1.39A2.65,2.65,0,0,0,219.38,145.42Z"/><path class="cls-5" d="M207.84,174.55c-37.71,0-65.37,7.31-79,21.68,8.18,14.52,14.89,21.45,31.74,29.36,18.17,8.53,31.73,10.58,51,10.58,23.86,0,44.48-7.87,58.31-17.94,10-7.28,14.77-12.87,17.94-19.18C279.68,185.13,246.89,174.55,207.84,174.55Z"/><path d="M196.6,91c-10.29-7.56-25.88-4.94-38.75,5.31-1.68,1.07-2.68,1.84-2.68,1.84-1.19-2.32.52-6.23.52-6.23a8.08,8.08,0,0,0-3.53,9.06l-3.07,3.76c-.61.1-1-6-1-6-4.89,6.67-1.69,9.18-1.39,9.49-.71,1-1.32,2-2,3-1.2.15-3.06-3.36-3.06-3.36a9.64,9.64,0,0,0,.79,7.44c-8.43,16.34-6.8,33.39,4.42,41.63,13.14,9.65,34.91,2.71,48.63-15.51S209.73,100.68,196.6,91Z"/><ellipse class="cls-5" cx="173.81" cy="122.18" rx="34.85" ry="25.19" transform="translate(-27.97 188.7) rotate(-53.35)"/><ellipse class="cls-6" cx="178.49" cy="129.47" rx="15.22" ry="15.27" transform="matrix(0.5, -0.87, 0.87, 0.5, -22.88, 219.31)"/><circle cx="179.95" cy="129.19" r="11.57"/><circle class="cls-5" cx="182.92" cy="132.98" r="4.43"/><path d="M220.18,91c10.29-7.56,25.88-4.94,38.75,5.31,1.68,1.07,2.67,1.84,2.67,1.84,1.2-2.32-.51-6.23-.51-6.23a8.08,8.08,0,0,1,3.53,9.06l3.07,3.76c.6.1,1-6,1-6,4.9,6.67,1.7,9.18,1.39,9.49.72,1,1.33,2,2,3,1.21.15,3.07-3.36,3.07-3.36a9.74,9.74,0,0,1-.79,7.44c8.43,16.34,6.8,33.39-4.42,41.63-13.14,9.65-34.91,2.71-48.64-15.51S207,100.68,220.18,91Z"/><ellipse class="cls-5" cx="242.97" cy="122.18" rx="25.19" ry="34.85" transform="translate(-24.9 169.18) rotate(-36.65)"/><ellipse class="cls-6" cx="235.38" cy="127.83" rx="15.27" ry="15.22" transform="translate(-32.38 134.82) rotate(-30)"/><circle cx="233.98" cy="127.49" r="11.57"/><circle class="cls-5" cx="231.48" cy="132.26" r="4.43"/><path class="cls-7" d="M209.46,140.34c-1.43-.64-2.76-1.15-3.43-.4-1,1.06-1.76,2.14-1.41,2.52s3.1,1.21,4.62,2,4.25,2.6,4.81,2.76,3.72-.72,3.71-1.37C217.73,144.75,213.32,142.07,209.46,140.34Z"/><path class="cls-8" d="M208,145.23c-1.46-.73-3.63-2-4.53-1.45s-2.82,4.83-3.3,6.73-1.36,6.23,0,8.14,7.63-.7,7.63-.7-.94-1.51-1.7-2.83a33.69,33.69,0,0,1-1.69-3.94c-.57-1.33.82-2.06,2.79-2.4s5.36-.76,5.62-.85S210.18,146.33,208,145.23Z"/><path class="cls-9" d="M209,150s2.43-.31,3.95-.61a11,11,0,0,0,2.65-.8,10.63,10.63,0,0,1-3.95,6.6,3.26,3.26,0,0,0-.28-3.22A4.46,4.46,0,0,0,209,150Z"/><path class="cls-10" d="M208.55,153.91a15.58,15.58,0,0,0-.3-2.49c-.24-.85-.07-1.2-.76-1.32s-1.89.17-2,.78,2.68,5.58,3.38,6.34,2.55-2.89,2-3.91a8.78,8.78,0,0,0-1.64-1.95Z"/><path class="cls-2" d="M133.51,179.26c-.82,2.65.52,5.7,1.72,8a49.68,49.68,0,0,0,7,10c2.63,3,5.45,6,8.91,8,3.19,1.84,6.86,1.5,10.42,1.27.47,0,7.55-.95,7.56-.92l-2.09-6.15c1.41-.53,10.42-7.39,9.95-8.37s-9.22-2.77-8.85-3.26,7-7.34,7-8.56-9.65-2.11-9.65-2.11l2.5-6.06c-1-1.41-10.57,2.24-12,2.55-6.15.33-17.65-6.51-20-4.16C130.71,174.9,139,171.4,133.51,179.26Z"/><path class="cls-3" d="M168.26,204.74s-16,7.47-34.75-25.48c0,0-4.67-20,17.25-2.69l16.77-1.41-5.47,5.65,11.75,2.67c.35.1-10.22,4.16-10.38,5.51s10.38,4.55,10.38,4.55l-12.23,4Z"/><path class="cls-4" d="M133.51,179.26c-1,1.89,1.36,5.05,2.31,6.51a82,82,0,0,0,6.68,8.65c2.83,3.3,5.82,6.63,9.83,8.51A25.3,25.3,0,0,0,164,205.34a16.29,16.29,0,0,0,4.22-.6,50.67,50.67,0,0,1-6.68-7.18C166,200.13,137.23,182.51,133.51,179.26Z"/><path class="cls-2" d="M288.64,179.26c.82,2.65-.53,5.7-1.72,8a49.72,49.72,0,0,1-7,10c-2.62,3-5.45,6-8.91,8-3.19,1.84-6.86,1.5-10.41,1.27-.47,0-7.55-.95-7.56-.92l2.08-6.15c-1.4-.53-10.42-7.39-9.94-8.37s9.22-2.77,8.85-3.26-7-7.34-7-8.56,9.65-2.11,9.65-2.11l-2.5-6.06c1-1.41,10.57,2.24,12,2.55,6.14.33,17.65-6.51,20-4.16C291.43,174.9,283.2,171.4,288.64,179.26Z"/><path class="cls-1" d="M149.59,180.86,149,199.51a2.43,2.43,0,0,0,2.36,2.51l2.62.08a1.43,1.43,0,0,0,1.47-1.4l.3-14.85a1.44,1.44,0,0,1,1.56-1.4l2.06.18,2.46.14a1.43,1.43,0,0,1,1.35,1.37l.6,14.91a1.44,1.44,0,0,0,1.4,1.37l1.15,0a2.43,2.43,0,0,0,2.5-2.5l-.35-11.89a2.43,2.43,0,0,1,2.51-2.5,1.69,1.69,0,0,1,1.55,1.2l1.07-1.74,1.49,2a1.46,1.46,0,0,1,1.49-1.27h.24l3,8.78a.91.91,0,0,0,1.64-.12L183,186l47.71,1.61a1.44,1.44,0,0,1,1.18.71c2.46,4.14,7.33,7.75,13.51,9.47,10.2,2.84,19.67-.68,22-7.59,5.06-14.87-4.73-15-14.93-17.88s-20.07.56-22,7.59a11,11,0,0,0-.25,1.27l-78.06-2.64A2.43,2.43,0,0,0,149.59,180.86Zm89.62,1.47c1-3.68,6.19-5.47,11.54-4s8.85,5.69,7.83,9.37-6.2,5.47-11.55,4S238.18,186,239.21,182.33Z"/><path class="cls-11" d="M151.6,178.5,151,196.94a2.4,2.4,0,0,0,2.33,2.48l2.59.08a1.42,1.42,0,0,0,1.46-1.39l.29-14.68a1.42,1.42,0,0,1,1.54-1.38l2,.17,2.43.14a1.41,1.41,0,0,1,1.33,1.36l.61,14.74a1.43,1.43,0,0,0,1.37,1.36l1.15,0a2.39,2.39,0,0,0,2.46-2.47l-.34-11.76a2.4,2.4,0,0,1,2.49-2.47,1.64,1.64,0,0,1,1.52,1.18l1.06-1.72,1.48,2a1.44,1.44,0,0,1,1.47-1.26h.24l2.94,8.69a.9.9,0,0,0,1.62-.12l1.54-8.36,47.17,1.59a1.43,1.43,0,0,1,1.17.71c2.43,4.09,7.25,7.66,13.35,9.36,10.09,2.81,19.45-.67,21.78-7.5,5-14.7-4.68-14.87-14.77-17.68s-19.84.55-21.77,7.5a7.9,7.9,0,0,0-.25,1.25l-77.19-2.6A2.39,2.39,0,0,0,151.6,178.5ZM240.21,180c1-3.64,6.13-5.4,11.41-3.93s8.76,5.62,7.74,9.27-6.12,5.4-11.41,3.93S239.2,183.6,240.21,180Z"/><path class="cls-4" d="M288.64,179.26c1,1.89-1.36,5.05-2.31,6.51a83.5,83.5,0,0,1-6.68,8.66c-2.83,3.3-5.83,6.62-9.83,8.5a25.41,25.41,0,0,1-9.6,2.41C266.58,204.52,277.07,199.55,288.64,179.26Z"/><path class="cls-3" d="M271.38,176.57c21.92-17.26,17.26,2.69,17.26,2.69-3.2,2.8-24.93,16.23-28.13,18.29l-12.17-4s1.63-.5,3.6-1.18c8.3.79,15.53-2.54,17.17-8.43a10.4,10.4,0,0,0-1-7.65Z"/><path class="cls-3" d="M268.1,176.29a10.4,10.4,0,0,1,1,7.65c-1.64,5.89-8.87,9.22-17.17,8.43,3-1.05,6.87-2.56,6.77-3.38-.08-.65-2.52-1.91-5-3.06,3.33-.28,6-1.9,6.68-4.42.57-2-.26-4.24-2-6Z"/><path class="cls-12" d="M268.1,176.29l-9.75-.82a12.94,12.94,0,0,0-5.76-3.28c-5.32-1.48-10.46.29-11.48,4s2.46,7.83,7.78,9.31a13.43,13.43,0,0,0,4.8.47c2.5,1.15,4.94,2.41,5,3.06.1.82-3.74,2.33-6.77,3.38a26.77,26.77,0,0,1-4.72-.88c-6.14-1.71-11-5.3-13.43-9.42a1.43,1.43,0,0,0-1.17-.71l-47.43-1.6-1.55,8.41a.9.9,0,0,1-1.62.12l-3-8.74h-.24a1.43,1.43,0,0,0-1.48,1.26l-1.49-2-1.06,1.73a1.65,1.65,0,0,0-1.54-1.19,2.41,2.41,0,0,0-2.49,2.48l.34,11.83a2.41,2.41,0,0,1-2.48,2.48l-1.15,0a1.43,1.43,0,0,1-1.38-1.37l-.61-14.82a1.42,1.42,0,0,0-1.34-1.36l-2.44-.14-2-.18a1.43,1.43,0,0,0-1.55,1.39l-.3,14.76a1.42,1.42,0,0,1-1.46,1.4l-2.6-.08a2.42,2.42,0,0,1-2.35-2.49l.63-18.55a2.42,2.42,0,0,1,2.5-2.33l77.6,2.62a8,8,0,0,1,.25-1.26c1.95-7,11.75-10.37,21.89-7.54C260.75,168,265.81,171.88,268.1,176.29Z"/><path class="cls-3" d="M253.9,204.74l6.67-7.17A51,51,0,0,1,253.9,204.74Z"/><path class="cls-4" d="M260.57,197.57l-.06,0c3.2-2.06,24.93-15.49,28.13-18.29-11.57,20.29-22.06,25.26-28.42,26.08-.71,0-1.41,0-2.11,0a17.51,17.51,0,0,1-4.2-.59h0A51,51,0,0,0,260.57,197.57Z"/><path class="cls-4" d="M260.51,197.55l.06,0c-.22.13-.37.2-.43.23Z"/><path class="cls-3" d="M258.35,175.47c1.76,1.8,2.59,4,2,6-.71,2.52-3.35,4.14-6.68,4.42-2.73-1.26-5.53-2.39-5.35-2.44s11.75-2.67,11.75-2.67l-5.48-5.66Z"/><path class="cls-3" d="M258.11,205.35c.7,0,1.4,0,2.11,0a12.42,12.42,0,0,1-6.31-.58A17.51,17.51,0,0,0,258.11,205.35Z"/><ellipse class="cls-1" cx="406.2" cy="233.2" rx="89.2" ry="32.07"/><path class="cls-13" d="M635.07,150.28,634,164.16a.68.68,0,0,1-.22.48l1.15-14.36Z"/><path class="cls-13" d="M575,142.1l59.59,4.74a.78.78,0,0,1,.7.83l-.19,2.61h-.19l.09-1.05a.75.75,0,0,0-.7-.83l-58.6-4.65A8,8,0,0,0,575,142.1Z"/><path class="cls-14" d="M633.7,177.59,631,190.07c0,.1-.06.16-.09.26l2.73-12.8Z"/><path class="cls-14" d="M633.22,177.28l-59.94-13c0-.35,0-.67,0-1a1.16,1.16,0,0,0,0-.32l59.94,13a.76.76,0,0,1,.57.92l-.16.67A.74.74,0,0,0,633.22,177.28Z"/><path class="cls-15" d="M632.87,166.32l-11.94-1,.23-1.5,12,1a.67.67,0,0,0,.6-.19l-.06,1A.75.75,0,0,1,632.87,166.32Z"/><path class="cls-13" d="M624.72,199.15l-4.49,13.17a.64.64,0,0,1-.32.39l4.65-13.63Z"/><path class="cls-13" d="M618.74,162.85l1.21-8.34.06-.5,1.72.12a.75.75,0,0,1,.67.86l-1.24,8.85-1.72-.13a.75.75,0,0,1-.7-.76Z"/><path class="cls-15" d="M620.93,165.34l11.94,1a.75.75,0,0,0,.83-.7l.06-1v0a.68.68,0,0,0,.22-.48l1.09-13.88h0l1.46.13a.73.73,0,0,1,.7.79L636,167.63a.74.74,0,0,1-.83.67l-13.66-1.15a.73.73,0,0,1-.66-.86Z"/><path class="cls-13" d="M620.17,152.92V153l-.16,1Z"/><path class="cls-13" d="M620,154.51l-1.21,8.34Z"/><path class="cls-16" d="M620.93,165.34l-1.72-.16a.79.79,0,0,1-.66-.89l.19-1.34a.75.75,0,0,0,.7.76l1.72.13Z"/><path class="cls-15" d="M619.25,212.8a.81.81,0,0,0,.66-.09l-.31.95a.82.82,0,0,1-1,.48l-11.33-3.95v0l.57-1.31Z"/><path class="cls-14" d="M618.45,180l-2.13,7.51a.54.54,0,0,1-.26-.41l2.23-7.83A.86.86,0,0,1,618.45,180Z"/><path class="cls-14" d="M618.2,179.15l.25-.92a.94.94,0,0,1,0,.41l-.16.61s-.06-.06-.09-.06Z"/><path class="cls-14" d="M618.29,179.25l-2.23,7.83a.81.81,0,0,1,0-.38l2.14-7.51S618.26,179.22,618.29,179.25Z"/><path class="cls-13" d="M616.6,187.65l13.47,3a.85.85,0,0,0,.83-.32l-.61,2.77a.76.76,0,0,1-.92.57l-13.5-3a.74.74,0,0,1-.38-.23l.83-3A.58.58,0,0,0,616.6,187.65Z"/><path class="cls-13" d="M616.32,187.49l-.83,3a.69.69,0,0,1-.19-.73l.76-2.64A.54.54,0,0,0,616.32,187.49Z"/><path class="cls-15" d="M614.57,179.89l2-2.49,1.25.29a.82.82,0,0,1,.6.51v0l-.25.92a1.87,1.87,0,0,0-.35-.16l-1.25-.25-2.1,2.55Z"/><path class="cls-15" d="M615.87,192a.77.77,0,0,1-.57-.95l.19-.61a.74.74,0,0,0,.38.23l13.5,3a.76.76,0,0,0,.92-.57l.61-2.77c0-.1.06-.16.09-.26l2.71-12.48a.69.69,0,0,1,.09.58l-3.5,16.23a.79.79,0,0,1-.92.61Z"/><polygon class="cls-13" points="614.63 178.29 614.57 179.89 614.5 179.95 614.57 178.29 614.63 178.29"/><path class="cls-13" d="M624.43,197.14l-55.58-19.07a7.89,7.89,0,0,0-.28-1.75l47.14,16.17,9.39,3.22a.73.73,0,0,1,.48.95l-.86,2.49-.16-.07.35-1A.73.73,0,0,0,624.43,197.14Z"/><polygon class="cls-15" points="614.63 176.99 614.57 178.29 613.17 177.98 609.19 184.41 609.28 182.94 613.17 176.67 614.63 176.99"/><polygon class="cls-13" points="609.57 198.13 609.22 199.02 609.19 199.02 609.57 198.13"/><polygon class="cls-13" points="609.19 183.1 609.54 177.18 609.63 177.21 609.28 182.94 609.19 183.1"/><path class="cls-13" d="M609.06,199.34l-2.61,6.3Z"/><path class="cls-13" d="M610.81,199.56a.78.78,0,0,1,.48,1l-3.44,8.27-1.62-.57a.78.78,0,0,1-.45-1l.67-1.62,2.61-6.3.13-.32h0Z"/><polygon class="cls-15" points="606.51 179.19 606.7 177.59 608.26 175.62 609.63 175.91 609.54 177.18 608.26 176.93 606.51 179.19"/><path class="cls-15" d="M620.23,212.32l4.49-13.17,1.4.47a.75.75,0,0,1,.48,1l-5.32,15.56a.77.77,0,0,1-1,.48l-12.93-4.49a.8.8,0,0,1-.48-1l.39-.92,11.33,3.95a.82.82,0,0,0,1-.48l.31-.95A.64.64,0,0,0,620.23,212.32Z"/><polygon class="cls-13" points="606.83 176.61 606.7 177.59 606.51 177.85 606.67 176.57 606.83 176.61"/><path class="cls-16" d="M607.85,208.85l-.57,1.31-1.6-.54a.76.76,0,0,1-.47-1l.57-1.37a.78.78,0,0,0,.45,1Z"/><polygon class="cls-15" points="601.48 181.03 605.91 175.11 606.83 175.3 606.67 176.57 605.91 176.42 601.39 182.46 601.48 181.03"/><polygon class="cls-13" points="601.87 175.56 601.48 181.03 601.39 181.16 601.77 175.53 601.87 175.56"/><polygon class="cls-13" points="594.83 98.93 595.05 102.15 589.77 100.59 587.95 96.89 594.83 98.93"/><polygon class="cls-14" points="594.29 91.04 594.83 98.93 587.95 96.89 587.67 96.55 594.29 91.04"/><polygon class="cls-13" points="594.83 98.93 594.29 91.04 594.19 89.61 594.29 89.54 595.15 102.18 595.05 102.15 594.83 98.93"/><polygon class="cls-15" points="589.39 103.9 590.18 105.46 585.69 105.08 585.12 103.52 589.39 103.9"/><polygon class="cls-13" points="590.18 103.96 589.39 103.9 588.27 101.64 589.16 101.89 590.18 103.96"/><polygon class="cls-15" points="589.83 100.72 589.77 100.59 595.05 102.15 595.15 103.64 589.16 101.89 588.5 100.59 589.83 100.72"/><polygon class="cls-13" points="588.5 100.59 589.16 101.89 588.27 101.64 589.39 103.9 585.12 103.52 583.91 100.21 588.5 100.59"/><polygon class="cls-14" points="588.27 100.14 589.77 100.59 589.83 100.72 588.5 100.59 588.27 100.14"/><polygon class="cls-14" points="584.8 105.01 585.69 105.08 587.48 109.88 586.46 109.47 584.8 105.01"/><polygon class="cls-13" points="586.46 109.47 587.79 113.1 587.16 112.84 585.82 109.22 586.46 109.47"/><polygon class="cls-14" points="584.23 104.95 584.8 105.01 586.46 109.47 585.82 109.22 584.23 104.95"/><polygon class="cls-14" points="585.12 103.52 585.69 105.08 584.8 105.01 584.23 103.45 585.12 103.52"/><polygon class="cls-14" points="587.95 96.89 589.77 100.59 588.27 100.14 588.5 100.59 583.91 100.21 585.12 103.52 584.23 103.45 584.8 105.01 584.23 104.95 585.82 109.22 579.07 106.54 580.44 109.44 573.21 108.52 587.67 96.55 587.95 96.89"/><polygon class="cls-15" points="587.16 112.84 587.79 114.59 580.28 111.6 579.39 109.76 587.16 112.84"/><polygon class="cls-13" points="579.39 111.25 580.28 111.6 580.79 112.65 580.03 112.56 579.39 111.25"/><polygon class="cls-13" points="585.82 109.22 587.16 112.84 579.39 109.76 580.28 111.6 579.39 111.25 580.03 112.56 573.66 111.76 573.21 108.52 580.44 109.44 579.07 106.54 585.82 109.22"/><path class="cls-13" d="M634.91,150.28,576,145.6a5.52,5.52,0,0,0-.09-1,4.59,4.59,0,0,0-.19-.86l58.6,4.65a.75.75,0,0,1,.7.83Z"/><path class="cls-15" d="M575,142.1l-1.34-.1a4.94,4.94,0,0,0-.1-1c-.06-.29-.12-.61-.19-.89A8.08,8.08,0,0,1,575,142.1Z"/><polygon class="cls-15" points="580.03 112.56 580.79 114.15 573.88 113.26 573.66 111.76 580.03 112.56"/><path class="cls-15" d="M619.47,152.13a.79.79,0,0,1,.7.76v0L620,154l-45.55-3.63a13,13,0,0,1-3,3,12.56,12.56,0,0,0-2.49-1.81,12.71,12.71,0,0,0,3.19-3.19Z"/><polygon class="cls-13" points="574.52 118.86 574.33 118.83 573.88 115.58 574.07 115.61 574.52 118.86"/><polygon class="cls-14" points="574.07 115.61 573.75 113.26 573.88 113.26 574.2 115.64 574.07 115.61"/><polygon class="cls-14" points="573.88 115.58 573.56 113.23 573.75 113.26 574.07 115.61 573.88 115.58"/><path class="cls-14" d="M574.14,160.05l46.7,10.09,13,2.84a.77.77,0,0,1,.6.89l-.79,3.72-.07-.06.16-.67a.76.76,0,0,0-.57-.92l-59.94-13c0-.32,0-.67,0-1-.06-2.77-1.75-5.26-4.39-7a13.74,13.74,0,0,0,2.58-1.59,8.17,8.17,0,0,1,2.7,5.67A5.38,5.38,0,0,1,574.14,160.05Z"/><polygon class="cls-14" points="573.75 113.26 573.56 111.76 573.66 111.76 573.88 113.26 573.75 113.26"/><path class="cls-14" d="M573.63,243.94l-.64.41Z"/><path class="cls-13" d="M573.66,142.61a7.31,7.31,0,0,0-1.62-3.5,7.59,7.59,0,0,1,1.33,1c.07.28.13.6.19.89a4.94,4.94,0,0,1,.1,1l1.34.1a8,8,0,0,1,.7,1.65l-2-.15C573.72,143.28,573.69,143,573.66,142.61Z"/><path class="cls-14" d="M573,244.35v0l-10.66,6.94a.47.47,0,0,1-.26.1Z"/><path class="cls-14" d="M573.28,163c-.19-3-2.33-5.7-5.6-7.42a10.45,10.45,0,0,0,1.24-.57c2.64,1.75,4.33,4.24,4.39,7C573.31,162.31,573.31,162.66,573.28,163Z"/><path class="cls-15" d="M565.86,153.43a16.51,16.51,0,0,0,3.15-1.84,12.56,12.56,0,0,1,2.49,1.81,13.74,13.74,0,0,1-2.58,1.59A14.67,14.67,0,0,0,565.86,153.43Z"/><path class="cls-15" d="M620.36,151.49l-.19,1.4a.79.79,0,0,0-.7-.76L572.2,148.4a12.71,12.71,0,0,1-3.19,3.19,11.9,11.9,0,0,0-1.33-.7,13.81,13.81,0,0,0,4.42-4l47.56,3.76A.77.77,0,0,1,620.36,151.49Z"/><path class="cls-14" d="M567.68,155.56c3.27,1.72,5.41,4.4,5.6,7.42a1.16,1.16,0,0,1,0,.32c0,.35,0,.67,0,1l59.94,13a.74.74,0,0,1,.41.25l-2.73,12.8a.85.85,0,0,1-.83.32l-13.47-3a.58.58,0,0,1-.28-.16l2.13-7.51a.86.86,0,0,0-.16-.73l.16-.61a.94.94,0,0,0,0-.41v0l.73-2.55a.77.77,0,0,0-.57-1l-1.24-.26-2.1,2.52.09-3-1.43-.32-4,6.43.45-7.16-1.34-.32-1.75,2.26.28-2.58-.89-.19-4.52,6,.48-6.91L572,164.64a14.83,14.83,0,0,1-6.75,4.07h0a10.42,10.42,0,0,0-1.3-1.27,4.71,4.71,0,0,0,2.38-3.95,3.31,3.31,0,0,0-.06-.54,7,7,0,0,0,.06-.8.89.89,0,0,0,0-.28,4,4,0,0,0,1-2.64,4.2,4.2,0,0,0-1.47-3A13.68,13.68,0,0,0,567.68,155.56Z"/><path class="cls-13" d="M615.36,174l-.09,3,2.1-2.52,1.24.26a.77.77,0,0,1,.57,1l-.73,2.55a.82.82,0,0,0-.6-.51l-1.25-.29-2,2.49.06-1.6h-.06l.06-1.3-1.46-.32-3.89,6.27.35-5.73-.09,0,.09-1.27-1.37-.29-1.56,2,.13-1-.16,0,.16-1.28-.92-.19L601.48,181l.38-5.47-.09,0,.09-1.3-30.78-6.65a13.54,13.54,0,0,1-4.49,3.18,9.35,9.35,0,0,0-1.37-2,14.83,14.83,0,0,0,6.75-4.07l30.69,6.62-.48,6.91,4.52-6,.89.19-.28,2.58,1.75-2.26,1.34.32-.45,7.16,4-6.43Z"/><polygon class="cls-13" points="568.98 114.66 573.88 115.58 574.33 118.83 569.33 117.87 563.47 122.43 561.15 120.71 568.98 114.66"/><polygon class="cls-15" points="569.33 119.37 564.46 123.13 563.47 122.43 569.33 117.87 574.33 118.83 574.52 120.36 569.33 119.37"/><path class="cls-13" d="M568.85,178.07l55.58,19.07a.73.73,0,0,1,.48,1l-.35,1-55.93-19.16a4.66,4.66,0,0,0,.19-1C568.85,178.64,568.85,178.36,568.85,178.07Z"/><path class="cls-15" d="M569,151.59a16.51,16.51,0,0,1-3.15,1.84,13.41,13.41,0,0,0-2.35-.73,17.64,17.64,0,0,0,4.17-1.81A11.9,11.9,0,0,1,569,151.59Z"/><path class="cls-13" d="M562.84,133.19c5.25.54,9.42,3.18,10.53,6.94a7.59,7.59,0,0,0-1.33-1c-2.2-2.77-6.47-4.46-11.3-4.4Z"/><path class="cls-15" d="M568.92,155a10.45,10.45,0,0,1-1.24.57,15.44,15.44,0,0,0-3.76-1.43,15.84,15.84,0,0,0,1.94-.7A14.67,14.67,0,0,1,568.92,155Z"/><path class="cls-15" d="M567.45,174a7,7,0,0,1,1.08,2.33l-1.24-.42a7.53,7.53,0,0,0,.16-1A5.13,5.13,0,0,0,567.45,174Z"/><path class="cls-15" d="M567,171.86a5.07,5.07,0,0,0-.45-1.11,13.54,13.54,0,0,0,4.49-3.18l30.78,6.65-.09,1.3-30.69-6.62A12.49,12.49,0,0,1,567,171.86Z"/><path class="cls-13" d="M567.1,176.48a7.39,7.39,0,0,0-.73-3.95,10.52,10.52,0,0,1,1.08,1.43,5.13,5.13,0,0,1,0,1,7.53,7.53,0,0,1-.16,1l1.24.42,0,0a7.89,7.89,0,0,1,.28,1.75l-1.91-.64A3.1,3.1,0,0,0,567.1,176.48Z"/><path class="cls-13" d="M567.45,174a10.52,10.52,0,0,0-1.08-1.43,1.91,1.91,0,0,0-.13-.25,6.73,6.73,0,0,0,.8-.42A6,6,0,0,1,567.45,174Z"/><path class="cls-13" d="M567.2,159.23a4,4,0,0,1-1,2.64c-.22-2.26-2.48-4.11-5.54-4.68a.09.09,0,0,0,0-.07,18.44,18.44,0,0,0,2.29-.22,19.66,19.66,0,0,0,2.7-.63A4.2,4.2,0,0,1,567.2,159.23Z"/><path class="cls-15" d="M566.21,172.28a5.2,5.2,0,0,0-.64-1.08,6.2,6.2,0,0,0,1-.45,5.07,5.07,0,0,1,.45,1.11,6.73,6.73,0,0,1-.8.42Z"/><path class="cls-13" d="M562.49,149.45c2.83-1.18,4.64-3.44,4.26-5.73a1.31,1.31,0,0,0-.13-.41,2.19,2.19,0,0,0,.07-.67,4.39,4.39,0,0,1,2.32,3.09c.29,1.72-.7,3.47-2.45,4.71A16.83,16.83,0,0,0,562.49,149.45Z"/><path class="cls-16" d="M566.69,142.64a2.19,2.19,0,0,1-.07.67,2.15,2.15,0,0,0-.38-.89A1.71,1.71,0,0,1,566.69,142.64Z"/><path class="cls-14" d="M566.24,161.87a.89.89,0,0,1,0,.28,7,7,0,0,1-.06.8,2.19,2.19,0,0,0-.22-.76A1.31,1.31,0,0,0,566.24,161.87Z"/><path class="cls-13" d="M566.24,172.28a1.91,1.91,0,0,1,.13.25.66.66,0,0,1-.22-.22s0,0,.06,0Z"/><path class="cls-15" d="M566.15,172.31a9.34,9.34,0,0,0-1-.92l.47-.19a5.2,5.2,0,0,1,.64,1.08S566.18,172.31,566.15,172.31Z"/><path class="cls-13" d="M565.8,127.93a8.42,8.42,0,0,0-.42-1.91v0a2.45,2.45,0,0,0,.23-.76A9.84,9.84,0,0,1,565.8,127.93Z"/><path class="cls-13" d="M565.22,168.71a9.35,9.35,0,0,1,1.37,2,6.2,6.2,0,0,1-1,.45,9.69,9.69,0,0,0-1.91-2.11,11,11,0,0,0,1.53-.38Z"/><path class="cls-15" d="M564.91,131.69l-2.07,1.5a11.72,11.72,0,0,0-1.88-.13l3.95-2.87a3.25,3.25,0,0,0,.89-2.26C565.92,129.49,565.67,131.15,564.91,131.69Z"/><path class="cls-14" d="M564.52,123.19a2.35,2.35,0,0,1,1.09,2A3.65,3.65,0,0,0,564.52,123.19Z"/><polygon class="cls-14" points="564.33 123.25 564.46 123.13 564.52 123.19 564.33 123.25"/><path class="cls-15" d="M565.73,156.27a7.69,7.69,0,0,0-3.15-1.76,9.61,9.61,0,0,0,1.34-.38,15.44,15.44,0,0,1,3.76,1.43A13.68,13.68,0,0,1,565.73,156.27Z"/><path class="cls-15" d="M561.56,153.21a14.32,14.32,0,0,0,2-.51,13.41,13.41,0,0,1,2.35.73,15.84,15.84,0,0,1-1.94.7,15.7,15.7,0,0,0-2.42-.48C561.53,153.53,561.53,153.37,561.56,153.21Z"/><polygon class="cls-14" points="564.33 123.25 561.5 123.95 563.47 122.43 564.46 123.13 564.33 123.25"/><path class="cls-14" d="M563.89,167.44a10.42,10.42,0,0,1,1.3,1.27,11,11,0,0,1-1.53.38,12.44,12.44,0,0,0-1.17-.89A5.41,5.41,0,0,0,563.89,167.44Z"/><path class="cls-13" d="M563.66,169.09a9.69,9.69,0,0,1,1.91,2.11l-.47.19a14.41,14.41,0,0,0-3.19-2C562.52,169.32,563.09,169.22,563.66,169.09Z"/><path class="cls-14" d="M566.27,163.49a4.71,4.71,0,0,1-2.38,3.95,7.12,7.12,0,0,0-1-.73,5.65,5.65,0,0,0,3.28-3.76A3.31,3.31,0,0,1,566.27,163.49Z"/><path class="cls-15" d="M562.58,154.51a7.69,7.69,0,0,1,3.15,1.76,19.66,19.66,0,0,1-2.7.63,18.44,18.44,0,0,1-2.29.22,19.57,19.57,0,0,0,.54-2.32A8.67,8.67,0,0,0,562.58,154.51Z"/><path class="cls-15" d="M563.92,154.13a9.61,9.61,0,0,1-1.34.38c-.38-.09-.76-.19-1.18-.25,0-.19.07-.38.1-.61A15.7,15.7,0,0,1,563.92,154.13Z"/><path class="cls-14" d="M562.93,166.71a7.12,7.12,0,0,1,1,.73,5.41,5.41,0,0,1-1.4.76,14.2,14.2,0,0,0-1.37-.86A11.71,11.71,0,0,0,562.93,166.71Z"/><path class="cls-14" d="M563.66,169.09c-.57.13-1.14.23-1.75.32a7.59,7.59,0,0,0-1.37-.6,7.78,7.78,0,0,0,2-.61A12.44,12.44,0,0,1,563.66,169.09Z"/><path class="cls-15" d="M565.1,171.39a9.34,9.34,0,0,1,1,.92,18.59,18.59,0,0,1-5.67,1.43,4.46,4.46,0,0,0-.29-1.3A18.53,18.53,0,0,0,565.1,171.39Z"/><path class="cls-13" d="M566.75,143.72c.38,2.29-1.43,4.55-4.26,5.73a4.76,4.76,0,0,0-.64-.06V149a8.14,8.14,0,0,0,0-.86c2.64-.93,4.52-2.81,4.8-4.81A1.31,1.31,0,0,1,566.75,143.72Z"/><path class="cls-13" d="M563.51,152.7a14.32,14.32,0,0,1-2,.51l.1-.86A18.32,18.32,0,0,1,563.51,152.7Z"/><path class="cls-13" d="M567.68,150.89a17.64,17.64,0,0,1-4.17,1.81,18.32,18.32,0,0,0-1.85-.35s0-.1,0-.13a3.68,3.68,0,0,0,.57-.06,10,10,0,0,0,4.3-1.72C566.94,150.57,567.33,150.73,567.68,150.89Z"/><path class="cls-13" d="M566.56,150.44a10,10,0,0,1-4.3,1.72,3.68,3.68,0,0,1-.57.06c.06-.83.13-1.65.16-2.51.22-.1.45-.16.64-.26A16.83,16.83,0,0,1,566.56,150.44Z"/><path class="cls-14" d="M561.5,125.42l2.83-2.17.19-.06a3.65,3.65,0,0,1,1.09,2,2.45,2.45,0,0,1-.23.76,2.91,2.91,0,0,0-.86-1.34Z"/><path class="cls-13" d="M562.49,149.45c-.19.1-.42.16-.64.26v-.32A4.76,4.76,0,0,1,562.49,149.45Z"/><path class="cls-14" d="M561.72,234.1a1.49,1.49,0,0,1-.28.29l-.55.28v-.09Z"/><path class="cls-16" d="M561.69,152.22s0,.1,0,.13a6.67,6.67,0,0,0-.8-.06C561.12,152.29,561.4,152.25,561.69,152.22Z"/><path class="cls-15" d="M560.7,157.19c3.06.57,5.32,2.42,5.54,4.68a1.31,1.31,0,0,1-.25.32c-.7-1.88-2.9-3.31-5.64-3.73C560.48,158.05,560.61,157.6,560.7,157.19Z"/><path class="cls-16" d="M561.56,153.21c0,.16,0,.32-.06.44a12.91,12.91,0,0,0-1.88-.12c.32,0,.64-.07,1-.13S561.24,153.3,561.56,153.21Z"/><path class="cls-15" d="M561.4,154.26c.42.06.8.16,1.18.25a8.67,8.67,0,0,1-1.3.29,1.57,1.57,0,0,0,.09-.54Z"/><path class="cls-15" d="M560.39,139.58c2.64.07,4.93,1.15,5.85,2.84a9,9,0,0,0-5.28-.77C560.8,141,560.61,140.25,560.39,139.58Z"/><path class="cls-13" d="M559.84,136.94c-.12,0-.25,0-.38.07-.16-.35-.32-.7-.48-1l1.76-1.28c4.83-.06,9.1,1.63,11.3,4.4C569,137.07,564.56,136.18,559.84,136.94Z"/><path class="cls-16" d="M560.86,152.29a7,7,0,0,1-1.84-.13A11.15,11.15,0,0,1,560.86,152.29Z"/><path class="cls-16" d="M560.74,157.12a.09.09,0,0,1,0,.07,2.05,2.05,0,0,1-.31-.07A.52.52,0,0,0,560.74,157.12Z"/><path class="cls-13" d="M561.91,169.41a14.41,14.41,0,0,1,3.19,2,18.53,18.53,0,0,1-4.91,1.05,6.43,6.43,0,0,0-2.8-3,15,15,0,0,0,2.33.09A21.67,21.67,0,0,0,561.91,169.41Z"/><path class="cls-15" d="M560.74,134.71,559,136c-.19-.38-.35-.77-.54-1.12A14.82,14.82,0,0,1,560.74,134.71Z"/><path class="cls-14" d="M564.33,123.25l-2.83,2.17,3-.77a2.91,2.91,0,0,1,.86,1.34v0a3,3,0,0,1-.86,1l-4,2.93a1.53,1.53,0,0,0-.16-.86,2,2,0,0,0-.76-2.52,2.19,2.19,0,0,0-.51-3.34l-1.91-1.4,16-13.28.45,3.25h-.1l.2,1.5-.2,0,.32,2.35-4.9-.92-7.83,6,2.32,1.72-2,1.52Z"/><path class="cls-14" d="M560.51,235.31l-6.84,3.88a1.36,1.36,0,0,1,.09-.48l7.13-4A.7.7,0,0,1,560.51,235.31Z"/><path class="cls-15" d="M560.45,174.25a2.63,2.63,0,0,1-.06.48c-.1-.1-.23-.19-.32-.29s-.16-.41-.26-.63a4.9,4.9,0,0,0,.67-.07A3.09,3.09,0,0,1,560.45,174.25Z"/><path class="cls-16" d="M560.39,157.12a13.37,13.37,0,0,1-2.62-.06,4.34,4.34,0,0,1,.61-.06A14.48,14.48,0,0,1,560.39,157.12Z"/><path class="cls-16" d="M560.39,174.76l-.2.57a8.3,8.3,0,0,0-.12-.89c.09.1.22.19.32.29Z"/><path class="cls-15" d="M560.19,172.44a4.46,4.46,0,0,1,.29,1.3,4.9,4.9,0,0,1-.67.07,6.38,6.38,0,0,0-.86-1.28C559.37,172.5,559.78,172.5,560.19,172.44Z"/><path class="cls-16" d="M560.61,141.69a10.41,10.41,0,0,0-4.17,1.62,17.18,17.18,0,0,0-.8-2.8,10.43,10.43,0,0,1,2.71-.8,11.84,11.84,0,0,1,2-.13c.22.67.41,1.37.57,2.07A1,1,0,0,0,560.61,141.69Z"/><path class="cls-15" d="M556.34,155.12a3.06,3.06,0,0,0,.1-.51v0a10.41,10.41,0,0,1,2.89-.48,10.29,10.29,0,0,1,2,.16,1.57,1.57,0,0,1-.09.54l-.51.1A19.65,19.65,0,0,1,556.34,155.12Z"/><path class="cls-15" d="M560.07,233.18l-3.28.31,1-1,3.21-.32.7,1.08a.79.79,0,0,1,0,.8l-.83.48h0a.65.65,0,0,0-.09-.35Z"/><path class="cls-13" d="M557,150.22c0-.26,0-.51,0-.77a16.69,16.69,0,0,1,2.14-.19,14.47,14.47,0,0,1,2.64.13v.32a11.61,11.61,0,0,1-4.81.51Z"/><path class="cls-15" d="M559.81,138c3.54,0,6.43,1.66,6.85,4.17a2.91,2.91,0,0,1,0,.51,1.71,1.71,0,0,0-.45-.22c-.92-1.69-3.21-2.77-5.85-2.84A15,15,0,0,0,559.81,138Z"/><path class="cls-16" d="M557.07,148.69a25.21,25.21,0,0,0-.63-5.38,10.41,10.41,0,0,1,4.17-1.62,1,1,0,0,1,.35,0,28.67,28.67,0,0,1,.86,6.47,9.68,9.68,0,0,1-1.94.51A9.5,9.5,0,0,1,557.07,148.69Z"/><path class="cls-15" d="M559.81,173.81c.1.22.16.41.26.63a8.78,8.78,0,0,0-.86-.6A3.82,3.82,0,0,0,559.81,173.81Z"/><path class="cls-13" d="M566.66,142.13c-.42-2.51-3.31-4.2-6.85-4.17l-.35-1c.13,0,.26,0,.38-.07,4.72-.76,9.17.13,12.2,2.17a7.31,7.31,0,0,1,1.62,3.5c0,.35.06.67.06,1l2,.15a4.59,4.59,0,0,1,.19.86,5.52,5.52,0,0,1,.09,1l58.93,4.68-1.15,14.36v0a.67.67,0,0,1-.6.19l-12-1L622.4,155a.75.75,0,0,0-.67-.86L620,154l.16-1v-.1l.19-1.4a.77.77,0,0,0-.7-.89l-47.56-3.76a13.81,13.81,0,0,1-4.42,4c-.35-.16-.74-.32-1.12-.45,1.75-1.24,2.74-3,2.45-4.71a4.39,4.39,0,0,0-2.32-3.09A2.91,2.91,0,0,0,566.66,142.13Z"/><path class="cls-14" d="M559.59,164.76a9,9,0,0,0,6.4-2.57,2.19,2.19,0,0,1,.22.76,5.65,5.65,0,0,1-3.28,3.76,16.82,16.82,0,0,0-3.56-2Z"/><path class="cls-13" d="M560.51,129.91l4-2.93a3,3,0,0,0,.86-1,8.42,8.42,0,0,1,.42,1.91,3.25,3.25,0,0,1-.89,2.26L561,133.06a18.16,18.16,0,0,0-3.41.25.3.3,0,0,0-.09-.19l2-1.43A2.38,2.38,0,0,0,560.51,129.91Z"/><path class="cls-13" d="M557,132.42l3.5-2.51a2.38,2.38,0,0,1-1.08,1.78l-2,1.43C557.33,132.9,557.17,132.64,557,132.42Z"/><path class="cls-16" d="M559.46,137a20.6,20.6,0,0,0-2.93.76L559,136C559.14,136.31,559.3,136.66,559.46,137Z"/><path class="cls-15" d="M562.84,133.19l-2.1,1.52a14.82,14.82,0,0,0-2.3.16l2.52-1.81A11.72,11.72,0,0,1,562.84,133.19Z"/><path class="cls-13" d="M557,151.59c0-.48.06-.93.09-1.37a11.61,11.61,0,0,0,4.81-.51c0,.86-.1,1.68-.16,2.51-.29,0-.57.07-.83.07a11.15,11.15,0,0,0-1.84-.13s-.07,0-.1,0A7,7,0,0,1,557,151.59Z"/><polygon class="cls-13" points="558.95 231.46 557.81 232.54 557.74 232.54 558.92 231.43 558.95 231.46"/><path class="cls-16" d="M558.28,153.5c.42,0,.86,0,1.25,0a14.67,14.67,0,0,1-2.87.09A9.82,9.82,0,0,1,558.28,153.5Z"/><path class="cls-14" d="M559.59,126.53a2,2,0,0,1,.76,2.52,2.55,2.55,0,0,0-.92-1.15l-.8-.6.45-.32A3.65,3.65,0,0,0,559.59,126.53Z"/><path class="cls-13" d="M558.44,134.87c-.28-.54-.57-1.05-.89-1.56a18.16,18.16,0,0,1,3.41-.25Z"/><path class="cls-14" d="M554.88,168.46c.22-.26.44-.54.67-.83a17.69,17.69,0,0,1,5,1.18,11.51,11.51,0,0,1-1.87.22A11.09,11.09,0,0,1,554.88,168.46Z"/><path class="cls-16" d="M555.13,139.07a10.27,10.27,0,0,1,3.06-1,9.07,9.07,0,0,1,1.62-.13,15,15,0,0,1,.58,1.62,11.84,11.84,0,0,0-2,.13,10.43,10.43,0,0,0-2.71.8A13.76,13.76,0,0,0,555.13,139.07Z"/><path class="cls-15" d="M558.38,157a4.34,4.34,0,0,0-.61.06,16.23,16.23,0,0,1-1.91-.29,11.57,11.57,0,0,0,.48-1.65,19.65,19.65,0,0,0,4.43-.22l.51-.1a19.57,19.57,0,0,1-.54,2.32.52.52,0,0,1-.35,0A14.48,14.48,0,0,0,558.38,157Z"/><path class="cls-13" d="M552,171.55a19.16,19.16,0,0,0,1.62-1.63,8.94,8.94,0,0,1,5.35,2.61h-.16A19.36,19.36,0,0,1,552,171.55Z"/><path class="cls-13" d="M559.33,164.76a8.61,8.61,0,0,1-1.78-.15,1.1,1.1,0,0,0,.22-.39A12.45,12.45,0,0,1,559.33,164.76Z"/><path class="cls-13" d="M557.07,149v-.29a9.5,9.5,0,0,0,2.81-.06,9.68,9.68,0,0,0,1.94-.51,8.14,8.14,0,0,1,0,.86v.41a14.47,14.47,0,0,0-2.64-.13,16.69,16.69,0,0,0-2.14.19Z"/><path class="cls-14" d="M560.51,129.91l-3.5,2.51a2.23,2.23,0,0,0-.19-.32l2.61-1.91a2.53,2.53,0,0,0,.92-1.14A1.53,1.53,0,0,1,560.51,129.91Z"/><path class="cls-14" d="M561.12,167.34a18.33,18.33,0,0,0-4.2-1.68c.22-.35.44-.7.63-1a8.61,8.61,0,0,0,1.78.15h0a16.82,16.82,0,0,1,3.56,2A11.71,11.71,0,0,1,561.12,167.34Z"/><path class="cls-14" d="M558.67,167.69a9.21,9.21,0,0,1-2.93-.35c.41-.54.83-1.11,1.18-1.68a18.33,18.33,0,0,1,4.2,1.68A9.73,9.73,0,0,1,558.67,167.69Z"/><path class="cls-16" d="M557.46,133.12a.3.3,0,0,1,.09.19h-.13c-.09,0-.22,0-.31.07Z"/><path class="cls-14" d="M555.16,129.84l3.47-2.54.8.6a2.55,2.55,0,0,1,.92,1.15,2.53,2.53,0,0,1-.92,1.14l-2.61,1.91C556.31,131.34,555.77,130.58,555.16,129.84Z"/><path class="cls-13" d="M557.46,133.12l-.35.26a13.19,13.19,0,0,0-2,.44l1.88-1.4C557.17,132.64,557.33,132.9,557.46,133.12Z"/><path class="cls-15" d="M556.44,154.58c.09-.32.16-.64.22-1a14.67,14.67,0,0,0,2.87-.09s.06,0,.09,0a12.91,12.91,0,0,1,1.88.12c0,.23-.06.42-.1.61h0a10.29,10.29,0,0,0-2-.16A10.41,10.41,0,0,0,556.44,154.58Z"/><path class="cls-13" d="M559.53,153.53c-.39,0-.83,0-1.25,0a9.82,9.82,0,0,0-1.62.12c.1-.47.16-.92.22-1.37a10.74,10.74,0,0,1,1.4-.09h.64s.06,0,.1,0a7,7,0,0,0,1.84.13,6.67,6.67,0,0,1,.8.06l-.1.86c-.32.09-.63.13-.95.19s-.67.1-1,.13C559.59,153.53,559.56,153.56,559.53,153.53Z"/><path class="cls-13" d="M556.88,152.25a4.93,4.93,0,0,1,.07-.66,7,7,0,0,0,2,.57h-.64A10.74,10.74,0,0,0,556.88,152.25Z"/><path class="cls-13" d="M557,150.22a7.51,7.51,0,0,1-1.84-.45,12.81,12.81,0,0,1,1.87-.32C557.07,149.71,557,150,557,150.22Z"/><path class="cls-13" d="M556.47,153.62a16.33,16.33,0,0,1-3.85-.54,20.61,20.61,0,0,1,4.26-.83c-.06.45-.12.9-.22,1.37A.21.21,0,0,1,556.47,153.62Z"/><path class="cls-16" d="M556.53,137.77a20.6,20.6,0,0,1,2.93-.76l.35,1a9.07,9.07,0,0,0-1.62.13,10.27,10.27,0,0,0-3.06,1,1.23,1.23,0,0,1-.09-.22v0l1.46-1Z"/><path class="cls-16" d="M557.55,164.61a9.37,9.37,0,0,1-3.15-1.09,19.51,19.51,0,0,1,3.37.7A1.1,1.1,0,0,1,557.55,164.61Z"/><path class="cls-15" d="M556.44,154.61a3.06,3.06,0,0,1-.1.51,9.32,9.32,0,0,1-1.05-.1A4.61,4.61,0,0,1,556.44,154.61Z"/><path class="cls-15" d="M555.29,155a9.32,9.32,0,0,0,1.05.1,11.57,11.57,0,0,1-.48,1.65,13,13,0,0,1-2.32-.66A6.47,6.47,0,0,1,555.29,155Z"/><path class="cls-16" d="M555.86,156.77a16.23,16.23,0,0,0,1.91.29,7.93,7.93,0,0,0-2.13.38A4,4,0,0,0,555.86,156.77Z"/><path class="cls-16" d="M553.19,162.6a25.41,25.41,0,0,0,1.91-3.66,10.12,10.12,0,0,1,3.28-.61,14.07,14.07,0,0,1,2,.13,28.09,28.09,0,0,1-2.58,5.76,19.51,19.51,0,0,0-3.37-.7A5.75,5.75,0,0,1,553.19,162.6Z"/><path class="cls-13" d="M549.63,152a16.48,16.48,0,0,1,5-2.1,5.5,5.5,0,0,0,2.29,1.69,4.93,4.93,0,0,0-.07.66,20.61,20.61,0,0,0-4.26.83h0A16.24,16.24,0,0,1,549.63,152Z"/><path class="cls-14" d="M555.74,167.34a9.21,9.21,0,0,0,2.93.35,9.73,9.73,0,0,0,2.45-.35,14.2,14.2,0,0,1,1.37.86,7.78,7.78,0,0,1-2,.61,17.69,17.69,0,0,0-5-1.18Z"/><path class="cls-14" d="M555.74,167.34a7.15,7.15,0,0,1-4-2.38c.58,0,1.15,0,1.76.09a23.92,23.92,0,0,1,3.47.61C556.57,166.23,556.15,166.8,555.74,167.34Z"/><polygon class="cls-15" points="555.42 226.01 552.59 226.4 553.83 225.41 556.34 225.09 557.11 226.24 556.12 227.09 555.42 226.01"/><path class="cls-15" d="M554.85,138.41c.51-.23,1.08-.45,1.65-.64l-1.46,1A3.14,3.14,0,0,1,554.85,138.41Z"/><path class="cls-16" d="M558.38,158.33a10.12,10.12,0,0,0-3.28.61c.19-.48.38-1,.54-1.5a7.93,7.93,0,0,1,2.13-.38,13.37,13.37,0,0,0,2.62.06,2.05,2.05,0,0,0,.31.07c-.09.41-.22.86-.35,1.27A14.07,14.07,0,0,0,558.38,158.33Z"/><path class="cls-15" d="M555.29,155a15.4,15.4,0,0,1-2.86-.54,20.51,20.51,0,0,1,4-.86.21.21,0,0,0,.19,0c-.06.32-.13.64-.22,1v0A4.61,4.61,0,0,0,555.29,155Z"/><path class="cls-14" d="M557.39,169.48a11.48,11.48,0,0,0-2.54-1l0,0a11.09,11.09,0,0,0,3.79.57,11.51,11.51,0,0,0,1.87-.22,7.59,7.59,0,0,1,1.37.6,21.67,21.67,0,0,1-2.19.16A15,15,0,0,1,557.39,169.48Z"/><path class="cls-13" d="M554.66,149.9a2.14,2.14,0,0,1,.54-.13,7.51,7.51,0,0,0,1.84.45c0,.44-.06.89-.09,1.37A5.5,5.5,0,0,1,554.66,149.9Z"/><path class="cls-15" d="M558.79,173.87a19.87,19.87,0,0,1-7.57-1.24,9.54,9.54,0,0,1,3.5-.29,9.84,9.84,0,0,1,4.49,1.5A2,2,0,0,1,558.79,173.87Z"/><path class="cls-14" d="M557.39,169.48a16.36,16.36,0,0,1-3-.48,3.43,3.43,0,0,0,.45-.51A11.48,11.48,0,0,1,557.39,169.48Z"/><path class="cls-15" d="M556.47,153.62a20.51,20.51,0,0,0-4,.86,11.83,11.83,0,0,1-1.82-.63,19.78,19.78,0,0,1,2-.77h0A16.33,16.33,0,0,0,556.47,153.62Z"/><path class="cls-14" d="M554.88,168.46a8,8,0,0,1-1.91-1c.7,0,1.43,0,2.16.1a2,2,0,0,1,.42.06C555.32,167.92,555.1,168.2,554.88,168.46Z"/><path class="cls-15" d="M554.72,137.58l3.72-2.71c.19.35.35.74.54,1.12l-2.45,1.78h0c-.57.19-1.14.41-1.65.64-.1-.23-.23-.48-.35-.7A.67.67,0,0,0,554.72,137.58Z"/><path class="cls-13" d="M555.2,149.77a2.14,2.14,0,0,0-.54.13,1.91,1.91,0,0,1-.32-.48A2.44,2.44,0,0,0,555.2,149.77Z"/><path class="cls-13" d="M553.6,169.92a6.28,6.28,0,0,0,.8-.92,16.36,16.36,0,0,0,3,.48,6.43,6.43,0,0,1,2.8,3c-.41.06-.82.06-1.24.09A8.94,8.94,0,0,0,553.6,169.92Z"/><path class="cls-13" d="M558.44,134.87l-3.72,2.71a.67.67,0,0,1-.22.13c-.26-.58-.58-1.15-.9-1.72a21.68,21.68,0,0,1,4-1A3.67,3.67,0,0,1,558.44,134.87Z"/><polygon class="cls-13" points="554.62 224.77 553.83 225.41 553.54 225.44 554.53 224.64 554.62 224.77"/><path class="cls-13" d="M553.86,148.15a2.27,2.27,0,0,1,0-.45,7.4,7.4,0,0,0,3.24,1v.76a12.81,12.81,0,0,0-1.87.32,2.44,2.44,0,0,1-.86-.35A3,3,0,0,1,553.86,148.15Z"/><path class="cls-14" d="M560.89,234.7l-7.13,4a.87.87,0,0,1,.29-.28l6.81-3.85h0v.12Z"/><path class="cls-14" d="M554.4,163.52l-.7-.09c-.32,0-.67-.07-1-.07a4,4,0,0,0,.48-.76A5.75,5.75,0,0,0,554.4,163.52Z"/><path class="cls-15" d="M551.12,155a9.75,9.75,0,0,1,1.31-.48,15.4,15.4,0,0,0,2.86.54,6.47,6.47,0,0,0-1.75,1.09A12.89,12.89,0,0,1,551.12,155Z"/><path class="cls-15" d="M553.83,147.7a4.37,4.37,0,0,1-2.26-2.48c.16-1.88,1.75-3.66,4.07-4.71a17.18,17.18,0,0,1,.8,2.8C554.75,144.49,553.73,146.08,553.83,147.7Z"/><path class="cls-13" d="M558.63,252.75l-7.48-11.62a.7.7,0,0,1-.12-.41v0l2.64-1.5a.83.83,0,0,0,.13.32l7.44,11.59a.8.8,0,0,0,.83.32L559.68,253A.71.71,0,0,1,558.63,252.75Z"/><path class="cls-15" d="M554.72,172.34a9.54,9.54,0,0,0-3.5.29c-.1,0-.19-.1-.29-.13l1.05-.95a19.36,19.36,0,0,0,6.81,1H559a6.38,6.38,0,0,1,.86,1.28,3.82,3.82,0,0,1-.6,0A9.84,9.84,0,0,0,554.72,172.34Z"/><path class="cls-13" d="M551.41,240.05l2.35-1.34a1.36,1.36,0,0,0-.09.48l-2.64,1.5A.69.69,0,0,1,551.41,240.05Z"/><path class="cls-13" d="M553.41,135.7a3.92,3.92,0,0,0,1.31-.6l2.39-1.72c.09,0,.22,0,.31-.07h.13c.32.51.61,1,.89,1.56a3.67,3.67,0,0,0-.86.1,21.68,21.68,0,0,0-4,1A1.2,1.2,0,0,0,553.41,135.7Z"/><path class="cls-13" d="M554.72,135.1a3.92,3.92,0,0,1-1.31.6,3.64,3.64,0,0,0-.41-.7,4.2,4.2,0,0,0,1.37-.64l.76-.54a13.19,13.19,0,0,1,2-.44Z"/><path class="cls-14" d="M551.69,165l-.06,0v0a14.58,14.58,0,0,0,1.08-1.53c.32,0,.67,0,1,.07l.7.09a9.37,9.37,0,0,0,3.15,1.09c-.19.35-.41.7-.63,1a23.92,23.92,0,0,0-3.47-.61C552.84,165,552.27,165,551.69,165Z"/><path class="cls-15" d="M551.76,159.86a7.54,7.54,0,0,1,3.88-2.42c-.16.51-.35,1-.54,1.5a7.11,7.11,0,0,0-3.09,2A3.09,3.09,0,0,1,551.76,159.86Z"/><path class="cls-14" d="M552.62,134.4a4.3,4.3,0,0,0,2.1-.77l2.1-1.53a2.23,2.23,0,0,1,.19.32l-1.88,1.4a14.49,14.49,0,0,0-2.35.83Z"/><path class="cls-14" d="M554.37,134.36A4.2,4.2,0,0,1,553,135c-.06-.1-.13-.22-.22-.35a14.49,14.49,0,0,1,2.35-.83Z"/><path class="cls-14" d="M554.4,169a11,11,0,0,1-2.51-.8,10.41,10.41,0,0,1,1.36,0c.55.07,1.09.16,1.6.26A3.43,3.43,0,0,1,554.4,169Z"/><path class="cls-14" d="M550.84,163.08a4.16,4.16,0,0,1,1.17-2.17,4.37,4.37,0,0,0,1.18,1.69,4,4,0,0,1-.48.76c-.63,0-1.24,0-1.81,0a.76.76,0,0,1-.06-.25Z"/><path class="cls-14" d="M552.62,134.4a27.35,27.35,0,0,0-3-3.7,4.75,4.75,0,0,0,4.78-.28l.79-.58c.61.74,1.15,1.5,1.66,2.26l-2.1,1.53A4.3,4.3,0,0,1,552.62,134.4Z"/><path class="cls-14" d="M551.63,135.16a9.63,9.63,0,0,1,1.15-.51c.09.13.16.25.22.35A6.19,6.19,0,0,1,551.63,135.16Z"/><path class="cls-15" d="M554.72,139.07a4.51,4.51,0,0,1-2.58.8,16.62,16.62,0,0,1,2.71-1.46,3.14,3.14,0,0,0,.19.41v0Z"/><path class="cls-13" d="M552,171.55a13.07,13.07,0,0,1-3-1.31,10.57,10.57,0,0,1,4.07-.38c.19,0,.38,0,.57.06A19.16,19.16,0,0,1,552,171.55Z"/><path class="cls-15" d="M552.59,153.08a19.78,19.78,0,0,0-2,.77,13,13,0,0,1-2-1s-.07-.07-.07-.1a8.58,8.58,0,0,1,1.06-.73A16.24,16.24,0,0,0,552.59,153.08Z"/><path class="cls-14" d="M549.69,167.15c.51-.54,1-1.08,1.5-1.65a5,5,0,0,0,1.78,2,19.16,19.16,0,0,0-2.42.16h0C550.23,167.47,549.94,167.31,549.69,167.15Z"/><path class="cls-14" d="M554.85,168.49c-.51-.1-1.05-.19-1.6-.26a10.41,10.41,0,0,0-1.36,0,8.57,8.57,0,0,1-1.34-.57,19.16,19.16,0,0,1,2.42-.16,8,8,0,0,0,1.91,1Z"/><polygon class="cls-13" points="551.73 231.04 556.12 227.09 556.18 227.19 551.89 231.01 551.73 231.04"/><path class="cls-14" d="M551.63,164.89a4.23,4.23,0,0,1-.73-1.53c.57,0,1.18,0,1.81,0A14.58,14.58,0,0,1,551.63,164.89Z"/><path class="cls-13" d="M555.64,157.44a7.54,7.54,0,0,0-3.88,2.42.72.72,0,0,1,0-.25,4.44,4.44,0,0,1,1.81-3.5,13,13,0,0,0,2.32.66A4,4,0,0,1,555.64,157.44Z"/><polygon class="cls-15" points="558.16 230.22 550.8 231.97 551.89 231.01 559.08 229.26 559.91 230.5 558.92 231.43 558.16 230.22"/><path class="cls-13" d="M553.41,135.7a4.62,4.62,0,0,1-2.73,0,6.74,6.74,0,0,1,1-.51A6.19,6.19,0,0,0,553,135,3.64,3.64,0,0,1,553.41,135.7Z"/><path class="cls-16" d="M554.37,130.42a4.75,4.75,0,0,1-4.78.28,27.25,27.25,0,0,0-4-3.37l4-2.87s.06,0,.09-.06a29.3,29.3,0,0,1,5.57,5.44Z"/><path class="cls-14" d="M551.69,165a7.15,7.15,0,0,0,4,2.38l-.19.29a2,2,0,0,0-.42-.06c-.73-.07-1.46-.1-2.16-.1a5,5,0,0,1-1.78-2,4.77,4.77,0,0,1,.41-.54Z"/><path class="cls-16" d="M551.63,164.92l.06,0h-.09S551.6,164.92,551.63,164.92Z"/><path class="cls-13" d="M554.34,149.42a4.46,4.46,0,0,1-2.74-3.28,3.16,3.16,0,0,1,0-.92,4.37,4.37,0,0,0,2.26,2.48,2.27,2.27,0,0,0,0,.45A3,3,0,0,0,554.34,149.42Z"/><path class="cls-14" d="M551.19,165.5a2,2,0,0,1-.2-.54h.61A4.77,4.77,0,0,0,551.19,165.5Z"/><path class="cls-15" d="M551.38,144.58c-.32-2.13,1.21-4.26,3.75-5.51a13.76,13.76,0,0,1,.51,1.44c-2.32,1.05-3.91,2.83-4.07,4.71A1.91,1.91,0,0,1,551.38,144.58Z"/><path class="cls-13" d="M554.5,137.71a4.73,4.73,0,0,1-4.56.12A20.19,20.19,0,0,1,553.6,136C553.92,136.56,554.24,137.13,554.5,137.71Z"/><path class="cls-13" d="M551.6,146.14a4.46,4.46,0,0,0,2.74,3.28,1.91,1.91,0,0,0,.32.48,16.48,16.48,0,0,0-5,2.1,12.69,12.69,0,0,1-2.33-1.53,6.29,6.29,0,0,1-.32-1.24c-.57-3.47,1.53-6.94,5.13-9.36h0a4.51,4.51,0,0,0,2.58-.8l.32-.22a1.23,1.23,0,0,0,.09.22c-2.54,1.25-4.07,3.38-3.75,5.51a1.91,1.91,0,0,0,.19.64A3.16,3.16,0,0,0,551.6,146.14Z"/><path class="cls-15" d="M551.15,241.13l7.48,11.62a.71.71,0,0,0,1,.23l2.39-1.56a.47.47,0,0,0,.26-.1L573,244.38a.64.64,0,0,1-.32.48l-13.91,9.07a.77.77,0,0,1-1-.22l-7.51-11.62a.77.77,0,0,1,.29-1.08l.54-.29A.7.7,0,0,0,551.15,241.13Z"/><path class="cls-15" d="M550.93,172.5c.1,0,.19.1.29.13a1.7,1.7,0,0,0-.61.13A1.92,1.92,0,0,0,550.93,172.5Z"/><path class="cls-15" d="M550.61,153.85a11.83,11.83,0,0,0,1.82.63,9.75,9.75,0,0,0-1.31.48,9.81,9.81,0,0,1-1.14-.83Z"/><path class="cls-14" d="M551,165a2,2,0,0,0,.2.54c-.48.57-1,1.11-1.5,1.65a11.66,11.66,0,0,1-2.32-1.75A19,19,0,0,1,551,165Z"/><path class="cls-14" d="M550.77,162.54a4,4,0,0,1,1-2.68,3.09,3.09,0,0,0,.25,1,4.16,4.16,0,0,0-1.17,2.17A2.5,2.5,0,0,1,550.77,162.54Z"/><polygon class="cls-15" points="554.11 223.98 546.63 225.12 547.75 224.13 555.04 223.05 555.55 223.82 554.53 224.64 554.11 223.98"/><path class="cls-14" d="M550.84,163.11a.76.76,0,0,0,.06.25h-.1A.61.61,0,0,1,550.84,163.11Z"/><path class="cls-14" d="M550.9,163.36a4.23,4.23,0,0,0,.73,1.53v0s0,0,0,0H551a2.69,2.69,0,0,1-.22-1.09,3.15,3.15,0,0,1,0-.51Z"/><path class="cls-14" d="M550.77,163.87A2.69,2.69,0,0,0,551,165a19,19,0,0,0-3.62.44,8.09,8.09,0,0,1-1.09-1.3,18.41,18.41,0,0,1,4.52-.74A3.15,3.15,0,0,0,550.77,163.87Z"/><path class="cls-15" d="M550.61,153.85l-.63.28a7.52,7.52,0,0,1-1.34-1.3A13,13,0,0,0,550.61,153.85Z"/><path class="cls-15" d="M549.94,137.83a4.73,4.73,0,0,0,4.56-.12c.12.22.25.47.35.7a16.62,16.62,0,0,0-2.71,1.46h0a4.24,4.24,0,0,1-2.61-.8l-.64-.44C549.21,138.34,549.56,138.09,549.94,137.83Z"/><path class="cls-13" d="M549.69,167.15c.25.16.54.32.83.48-.58.1-1.15.19-1.66.32C549.15,167.69,549.4,167.44,549.69,167.15Z"/><path class="cls-15" d="M552,171.55l-1.05.95a13.47,13.47,0,0,1-3.21-1.75,11,11,0,0,1,1.24-.51A13.07,13.07,0,0,0,552,171.55Z"/><path class="cls-13" d="M551.89,168.2a8.78,8.78,0,0,0-4.3,1.15.38.38,0,0,1-.16-.13c.48-.41,1-.83,1.43-1.27.51-.13,1.08-.22,1.66-.32h0A8.57,8.57,0,0,0,551.89,168.2Z"/><path class="cls-13" d="M554.72,120.52a4.72,4.72,0,0,0-5.22,0l-3.09,1.21,2.71-2a4.77,4.77,0,0,1,5.25,0l2.8,2-.32.25Z"/><path class="cls-13" d="M554.72,123a4.72,4.72,0,0,0-5.22,0l-.93.67A25.09,25.09,0,0,0,546,122l.38-.28,0,0,3.09-1.21a4.72,4.72,0,0,1,5.22,0l2.13,1.52.32-.25,1.91,1.4a2.19,2.19,0,0,1,.51,3.34c-.06,0-.1-.09-.16-.12Z"/><path class="cls-13" d="M548.67,137a13.09,13.09,0,0,1,2-1.3,4.62,4.62,0,0,0,2.73,0,1.2,1.2,0,0,1,.19.29,20.19,20.19,0,0,0-3.66,1.84,2.09,2.09,0,0,1-.44-.25Z"/><path class="cls-15" d="M554.72,124.46a4.74,4.74,0,0,0-5.13-.06,8.72,8.72,0,0,0-1-.76l.93-.67a4.72,4.72,0,0,1,5.22,0l4.71,3.44c.06,0,.1.09.16.12a3.65,3.65,0,0,1-.51.45l-.45.32Z"/><path class="cls-13" d="M547.59,169.35a8.78,8.78,0,0,1,4.3-1.15,11,11,0,0,0,2.51.8,6.28,6.28,0,0,1-.8.92c-.19,0-.38,0-.57-.06a10.57,10.57,0,0,0-4.07.38A9.2,9.2,0,0,1,547.59,169.35Z"/><path class="cls-14" d="M554.72,119a4.72,4.72,0,0,0-5.22,0l-5.29,2.1a16.27,16.27,0,0,0-1.49-.67l6.4-4.65a4.77,4.77,0,0,1,5.25,0l2.13,1.53,37.47-31,.22,3.32-37.34,31Z"/><path class="cls-15" d="M549.63,152a8.58,8.58,0,0,0-1.06.73,7.34,7.34,0,0,1-1.27-2.26A12.69,12.69,0,0,0,549.63,152Z"/><path class="cls-15" d="M548.86,138.63l-1.11-.83a7.19,7.19,0,0,1,.92-.83l.83.61a2.09,2.09,0,0,0,.44.25C549.56,138.09,549.21,138.34,548.86,138.63Z"/><path class="cls-16" d="M548.64,152.83s-.07-.07-.1-.07,0,0,0,0S548.61,152.8,548.64,152.83Z"/><path class="cls-15" d="M547.59,169.35a9.2,9.2,0,0,0,1.37.89,11,11,0,0,0-1.24.51,8.86,8.86,0,0,1-1-.8A4.12,4.12,0,0,1,547.59,169.35Z"/><path class="cls-13" d="M546.66,168.58a17.42,17.42,0,0,1,2.2-.63c-.48.44-1,.86-1.43,1.27A4.85,4.85,0,0,1,546.66,168.58Z"/><path class="cls-16" d="M550.58,172.79a28.94,28.94,0,0,1-3.44,2.45A6,6,0,0,1,550.58,172.79Z"/><path class="cls-13" d="M547.37,165.4a11.66,11.66,0,0,0,2.32,1.75c-.29.29-.54.54-.83.8a17.42,17.42,0,0,0-2.2.63,8.8,8.8,0,0,1-1.94-2.41A16.64,16.64,0,0,1,547.37,165.4Z"/><polygon class="cls-13" points="551.85 220.51 547.75 224.13 547.56 224.17 551.82 220.44 551.85 220.51"/><path class="cls-15" d="M548.42,46.18a.73.73,0,0,1,.66.86l-1.49,11.88-1.43-.26,1.49-12a.73.73,0,0,0-.19-.63Z"/><path class="cls-13" d="M546.63,176.51a9.72,9.72,0,0,0,5.64,2.36c3.72.32,7-1.21,7.92-3.54a2.58,2.58,0,0,1,0,.48c-.25,2.93-3.88,5-8.12,4.59a9.52,9.52,0,0,1-5.34-2.17,3.67,3.67,0,0,1-.13-1.34A1.76,1.76,0,0,1,546.63,176.51Z"/><path class="cls-13" d="M547.46,46.06l-14.32-1.72v-.19L547,45.83A.56.56,0,0,1,547.46,46.06Z"/><path class="cls-15" d="M547.43,169.22c-.26.19-.54.42-.8.64h0a8.51,8.51,0,0,1-.83-.92,8.71,8.71,0,0,1,.89-.36A4.85,4.85,0,0,0,547.43,169.22Z"/><path class="cls-13" d="M553.73,182.88c-3.56-.32-6.4-2.26-7-4.65A9.52,9.52,0,0,0,552,180.4c4.24.38,7.87-1.66,8.12-4.59a2.58,2.58,0,0,0,0-.48l.2-.57a4.47,4.47,0,0,1,1.46,3.57C561.59,181.22,558,183.26,553.73,182.88Z"/><path class="cls-16" d="M550.58,172.79a6,6,0,0,0-3.44,2.45c-.35.22-.7.44-1.08.63a4.64,4.64,0,0,1-1-2.29,5.09,5.09,0,0,1,2.65-2.83,13.47,13.47,0,0,0,3.21,1.75,1.92,1.92,0,0,1-.32.26A0,0,0,0,1,550.58,172.79Z"/><path class="cls-13" d="M544.66,146.59c-.19-2.9,1.43-5.76,4.2-8l.64.44a4.24,4.24,0,0,0,2.61.8c-3.6,2.42-5.7,5.89-5.13,9.36a6.29,6.29,0,0,0,.32,1.24,8.31,8.31,0,0,1-2.64-3.85Z"/><path class="cls-15" d="M547.59,169.35a4.12,4.12,0,0,0-.86.6h0c0-.06-.07-.06-.07-.09.26-.22.54-.45.8-.64A.38.38,0,0,0,547.59,169.35Z"/><path class="cls-13" d="M544.72,166.17a5.39,5.39,0,0,1-.57-1.28,13.78,13.78,0,0,1,2.13-.79,8.09,8.09,0,0,0,1.09,1.3A16.64,16.64,0,0,0,544.72,166.17Z"/><path class="cls-15" d="M546.63,176.51a8.43,8.43,0,0,1-.57-.64c.38-.19.73-.41,1.08-.63A3.89,3.89,0,0,0,546.63,176.51Z"/><path class="cls-16" d="M545.17,61a.78.78,0,0,0,.76-.67l.23-1.69,1.43.26-.22,1.72a.75.75,0,0,1-.9.63Z"/><path class="cls-14" d="M546.28,164.1a7.16,7.16,0,0,1-1.53-3.95,12.56,12.56,0,0,1,6.37-5.19,12.89,12.89,0,0,0,2.42,1.15,4.44,4.44,0,0,0-1.81,3.5.72.72,0,0,0,0,.25,4,4,0,0,0-1,2.68,2.5,2.5,0,0,0,.07.54v0a.61.61,0,0,0,0,.25A18.41,18.41,0,0,0,546.28,164.1Z"/><path class="cls-14" d="M545.84,122l.54-.19L546,122Z"/><path class="cls-15" d="M609.12,197,564.27,181.7c-2.83,2.52-7.51,4-12.67,3.47a20.13,20.13,0,0,1-5.73-1.37,12.58,12.58,0,0,0-.1-1.62,20.26,20.26,0,0,0,6.05,1.49c5.19.48,9.9-.95,12.77-3.5l45.11,15.44a.78.78,0,0,1,.47,1l-.54,1.31A.81.81,0,0,0,609.12,197Z"/><path class="cls-14" d="M549.59,130.7a27.35,27.35,0,0,1,3,3.7,4.61,4.61,0,0,1-3.12-.77l-4.71-3.44a2.55,2.55,0,0,1-.93-1.14,2.58,2.58,0,0,1,.93-1.15l.44-.32,3.89,2.84A3.87,3.87,0,0,0,549.59,130.7Z"/><path class="cls-15" d="M564.27,181.7,609.12,197a.81.81,0,0,1,.51.9l-.06.19-.38.89L566,184.18c-2.84,2.55-7.52,3.95-12.67,3.47a19.22,19.22,0,0,1-7.58-2.23,8.89,8.89,0,0,0,.16-1.62,20.13,20.13,0,0,0,5.73,1.37C556.76,185.65,561.44,184.22,564.27,181.7Z"/><path class="cls-13" d="M546.57,176.89a3.67,3.67,0,0,0,.13,1.34,4.93,4.93,0,0,1-1.47-1.91,6.55,6.55,0,0,0,.83-.45,8.43,8.43,0,0,0,.57.64A1.76,1.76,0,0,0,546.57,176.89Z"/><path class="cls-14" d="M549.5,119a4.72,4.72,0,0,1,5.22,0l2.13,1.56,37.34-31,.1,1.43-6.62,5.51-14.46,12-16,13.28-2.8-2a4.77,4.77,0,0,0-5.25,0l-2.71,2,0,0-.54.19c-.54-.32-1.09-.57-1.63-.83Z"/><path class="cls-16" d="M545.55,127.33l-1-.67a1.61,1.61,0,0,1,.29-.25l3.78-2.77a8.72,8.72,0,0,1,1,.76s-.06,0-.09.06Z"/><path class="cls-13" d="M566.37,172.53a7.39,7.39,0,0,1,.73,3.95,3.1,3.1,0,0,1-.16,1l1.91.64c0,.29,0,.57,0,.89a4.66,4.66,0,0,1-.19,1l55.93,19.16-4.65,13.63a.81.81,0,0,1-.66.09l-11.4-4,3.44-8.27a.78.78,0,0,0-.48-1l-1.59-.54.35-.89.06-.19.54-1.31a.78.78,0,0,0-.47-1l-45.11-15.44c-2.87,2.55-7.58,4-12.77,3.5a20.26,20.26,0,0,1-6.05-1.49A14.29,14.29,0,0,0,544,177c.41-.19.86-.42,1.27-.64a4.93,4.93,0,0,0,1.47,1.91c.63,2.39,3.47,4.33,7,4.65,4.24.38,7.86-1.66,8.12-4.55a4.47,4.47,0,0,0-1.46-3.57v0a2.63,2.63,0,0,0,.06-.48,3.09,3.09,0,0,0,0-.51,18.59,18.59,0,0,0,5.67-1.43A.66.66,0,0,0,566.37,172.53Z"/><path class="cls-15" d="M545.77,168.94a7.47,7.47,0,0,1-1.56-2.55,4.88,4.88,0,0,1,.51-.22,8.8,8.8,0,0,0,1.94,2.41A8.71,8.71,0,0,0,545.77,168.94Z"/><path class="cls-13" d="M545.07,172.85a4.37,4.37,0,0,1,1.63-2.9h0a8.86,8.86,0,0,0,1,.8,5.09,5.09,0,0,0-2.65,2.83A3,3,0,0,1,545.07,172.85Z"/><path class="cls-14" d="M544.72,159.8a4.58,4.58,0,0,1,.07-1,11.88,11.88,0,0,1,5.19-4.68,9.81,9.81,0,0,0,1.14.83,12.56,12.56,0,0,0-6.37,5.19A1.38,1.38,0,0,1,544.72,159.8Z"/><path class="cls-13" d="M545.23,176.32a3.47,3.47,0,0,1-.16-2.74,4.64,4.64,0,0,0,1,2.29A6.55,6.55,0,0,1,545.23,176.32Z"/><path class="cls-15" d="M544.5,126.66l1,.67-.32.25-.83-.6a.25.25,0,0,1-.12-.13C544.34,126.79,544.4,126.69,544.5,126.66Z"/><path class="cls-13" d="M544.15,164.89a6.3,6.3,0,0,1-.38-1.72,7.41,7.41,0,0,1,1-3,7.16,7.16,0,0,0,1.53,3.95A13.78,13.78,0,0,0,544.15,164.89Z"/><path class="cls-16" d="M544.72,147.26a4.76,4.76,0,0,1-.06-.64,8.31,8.31,0,0,0,2.64,3.85,7.34,7.34,0,0,0,1.27,2.26s0,0,0,0A8.23,8.23,0,0,1,544.72,147.26Z"/><path class="cls-14" d="M544.79,158.81a9,9,0,0,1,3.75-6.05s.07,0,.1.07a7.52,7.52,0,0,0,1.34,1.3A11.88,11.88,0,0,0,544.79,158.81Z"/><path class="cls-16" d="M544.4,123.19,546,122a25.09,25.09,0,0,1,2.57,1.6l-3.78,2.77a1.61,1.61,0,0,0-.29.25l-.86-.48A2.12,2.12,0,0,1,544.4,123.19Z"/><path class="cls-13" d="M548.86,138.63c-2.77,2.2-4.39,5.06-4.2,8l-.19-.89c-.45-2.84.83-5.67,3.28-7.9Z"/><path class="cls-14" d="M544.79,127.9a2.58,2.58,0,0,0-.93,1.15,2,2,0,0,1,.42-2.2.25.25,0,0,0,.12.13l.83.6Z"/><path class="cls-14" d="M549.5,133.63a4.61,4.61,0,0,0,3.12.77l.16.25a9.63,9.63,0,0,0-1.15.51,4.51,4.51,0,0,1-2.51-.8l-5.26-3.82a1.76,1.76,0,0,1,0-1.49,2.55,2.55,0,0,0,.93,1.14Z"/><path class="cls-15" d="M544.21,166.39a11.21,11.21,0,0,1-.38-1.34,1.07,1.07,0,0,1,.32-.16,5.39,5.39,0,0,0,.57,1.28A4.88,4.88,0,0,0,544.21,166.39Z"/><path class="cls-16" d="M538.93,123.19l3.79-2.74a16.27,16.27,0,0,1,1.49.67Z"/><path class="cls-13" d="M544.79,131.69a2.23,2.23,0,0,1-.93-1.15l5.26,3.82a4.51,4.51,0,0,0,2.51.8,6.74,6.74,0,0,0-1,.51,3.8,3.8,0,0,1-1.18-.57Z"/><path class="cls-14" d="M544,177a14.29,14.29,0,0,1,1.81,5.22,16.92,16.92,0,0,1-3.72-2.17s0,0,0,0a7.85,7.85,0,0,0-.89-1.88A25.35,25.35,0,0,0,544,177Z"/><path class="cls-13" d="M544.5,126.66c-.1,0-.16.13-.22.19a2,2,0,0,1-.64-.67Z"/><path class="cls-13" d="M541.16,173a27.4,27.4,0,0,0,5.44-3.12h0s0,0,.07.09a4.37,4.37,0,0,0-1.63,2.9,3,3,0,0,0,0,.73,3.47,3.47,0,0,0,.16,2.74c-.41.22-.86.45-1.27.64A19,19,0,0,0,541.16,173Z"/><path class="cls-15" d="M543.77,163.17a6.3,6.3,0,0,0,.38,1.72,1.07,1.07,0,0,0-.32.16,5.86,5.86,0,0,1-.09-1A8.33,8.33,0,0,1,543.77,163.17Z"/><path class="cls-13" d="M543.74,162.73a7.06,7.06,0,0,1,1-3.92,4.58,4.58,0,0,0-.07,1,1.38,1.38,0,0,0,0,.35,7.41,7.41,0,0,0-1,3A2.17,2.17,0,0,1,543.74,162.73Z"/><path class="cls-16" d="M544.4,123.19a2.12,2.12,0,0,0-.76,3,23,23,0,0,0-4-1.81l6.21-2.42.16.09Z"/><path class="cls-14" d="M541.09,190.8a8.41,8.41,0,0,0,1.95-7.22,13.41,13.41,0,0,0,2.67,1.84,7.4,7.4,0,0,1-1.91,3.92,6.35,6.35,0,0,1-.73.67l33.36,51.22a.77.77,0,0,1-.22,1.05l-2.58,1.66a.82.82,0,0,0,.22-1.09l-33.49-51.38.1-.09C540.68,191.19,540.9,191,541.09,190.8Z"/><path class="cls-14" d="M542.78,182.18a15.58,15.58,0,0,0,3.09,1.62,8.89,8.89,0,0,1-.16,1.62,13.41,13.41,0,0,1-2.67-1.84A7.65,7.65,0,0,0,542.78,182.18Z"/><path class="cls-14" d="M545.87,183.8a15.58,15.58,0,0,1-3.09-1.62,10.46,10.46,0,0,0-.73-2.17,16.92,16.92,0,0,0,3.72,2.17A12.58,12.58,0,0,1,545.87,183.8Z"/><path class="cls-14" d="M542.78,182.18a7.65,7.65,0,0,1,.26,1.4,8.9,8.9,0,0,1-1.53-1.62,8.19,8.19,0,0,0-.45-1.12A18.83,18.83,0,0,0,542.78,182.18Z"/><path class="cls-14" d="M543,183.58a8.41,8.41,0,0,1-1.95,7.22c-.19.2-.41.39-.63.58,2-2.36,2.26-5.86,1-9.42A8.9,8.9,0,0,0,543,183.58Z"/><path class="cls-13" d="M546.6,169.86a27.4,27.4,0,0,1-5.44,3.12,1.21,1.21,0,0,0-.23-.22,11.3,11.3,0,0,1,4.84-3.82A8.51,8.51,0,0,0,546.6,169.86Z"/><path class="cls-14" d="M541.16,173a19,19,0,0,1,2.8,4,25.35,25.35,0,0,1-2.83,1.14,12,12,0,0,0-1.44-2.19,6.94,6.94,0,0,1,1-2.71v0A2.16,2.16,0,0,0,541.16,173Z"/><path class="cls-13" d="M540,171.83c-.38-.35-.76-.67-1.14-1a10.85,10.85,0,0,1,5.31-4.46,7.47,7.47,0,0,0,1.56,2.55,11.3,11.3,0,0,0-4.84,3.82A7.76,7.76,0,0,0,540,171.83Z"/><path class="cls-14" d="M541.13,178.1A7.85,7.85,0,0,1,542,180a13.84,13.84,0,0,1-1.72-1.59C540.55,178.29,540.84,178.2,541.13,178.1Z"/><path class="cls-14" d="M540.65,173.17a3.64,3.64,0,0,1,.28-.41,1.21,1.21,0,0,1,.23.22A2.16,2.16,0,0,1,540.65,173.17Z"/><path class="cls-14" d="M540.36,180.11a5.14,5.14,0,0,0,.7.7s0,0,0,0a8.19,8.19,0,0,1,.45,1.12A7.61,7.61,0,0,1,540.36,180.11Z"/><path class="cls-13" d="M572.9,243.81,539.44,192.4a5.09,5.09,0,0,0,.73-.67c.06-.1.16-.16.19-.26l33.49,51.38a.82.82,0,0,1-.22,1.09l-.64.41A.56.56,0,0,0,572.9,243.81Z"/><path class="cls-14" d="M540.3,178.39A13.84,13.84,0,0,0,542,180c.06,0,0,0,0,0a10.46,10.46,0,0,1,.73,2.17,18.83,18.83,0,0,1-1.72-1.34s0,0,0,0a17.79,17.79,0,0,0-1.14-2.32A2,2,0,0,0,540.3,178.39Z"/><path class="cls-14" d="M538.93,127a2.64,2.64,0,0,1-1-1.21,1.54,1.54,0,0,1,1-1.12l.7-.28a23,23,0,0,1,4,1.81,2,2,0,0,0,.64.67,2,2,0,0,0-.42,2.2,1.76,1.76,0,0,0,0,1.49Z"/><path class="cls-14" d="M540.36,180.11a6.22,6.22,0,0,1-.54-1.59.14.14,0,0,0,.1,0,17.79,17.79,0,0,1,1.14,2.32A5.14,5.14,0,0,1,540.36,180.11Z"/><path class="cls-14" d="M540.36,180.11a8.33,8.33,0,0,1-1.11-1.43c.19,0,.38-.1.57-.16A6.22,6.22,0,0,0,540.36,180.11Z"/><path class="cls-14" d="M539.63,177.53a9,9,0,0,1,0-1.27,1.16,1.16,0,0,1,.06-.35,12,12,0,0,1,1.44,2.19c-.29.1-.58.19-.83.29Z"/><path class="cls-16" d="M539.82,178.52a.38.38,0,0,1-.06-.26.64.64,0,0,0,.16.23A.14.14,0,0,1,539.82,178.52Z"/><path class="cls-14" d="M539.69,175.91a13.58,13.58,0,0,0-1.52-1.82s0,0,0-.06a22.55,22.55,0,0,0,2.48-.83A6.94,6.94,0,0,0,539.69,175.91Z"/><path class="cls-14" d="M539.63,177.53l.67.86a2,2,0,0,1-.38.1.64.64,0,0,1-.16-.23A4.11,4.11,0,0,1,539.63,177.53Z"/><path class="cls-16" d="M539.63,124.37c-.48-.16-.92-.32-1.4-.45a3,3,0,0,1,.7-.73l5.28-2.07c.54.26,1.09.51,1.63.83Z"/><path class="cls-14" d="M538.07,173.11a6.36,6.36,0,0,1,.83-2.26c.38.31.76.63,1.14,1a7.76,7.76,0,0,1,.89.93,3.64,3.64,0,0,0-.28.41v0a22.55,22.55,0,0,1-2.48.83A4,4,0,0,1,538.07,173.11Z"/><path class="cls-13" d="M538.45,170.49a9.89,9.89,0,0,1,5.38-5.44,11.21,11.21,0,0,0,.38,1.34,10.85,10.85,0,0,0-5.31,4.46A4.73,4.73,0,0,0,538.45,170.49Z"/><path class="cls-16" d="M538.17,123.92a1.22,1.22,0,0,1,.76-.73,3,3,0,0,0-.7.73Z"/><path class="cls-14" d="M538.13,176.07a17.76,17.76,0,0,1,1.63,2.19.38.38,0,0,0,.06.26c-.19.06-.38.12-.57.16A7.59,7.59,0,0,1,538.13,176.07Z"/><path class="cls-16" d="M538.13,123.92a10.52,10.52,0,0,0-1.78-.44,17.92,17.92,0,0,0,.54-4.78,28.8,28.8,0,0,1,5.83,1.75l-3.79,2.74a1.22,1.22,0,0,0-.76.73Z"/><path class="cls-14" d="M538.17,174.09a13.58,13.58,0,0,1,1.52,1.82,1.16,1.16,0,0,0-.06.35,9,9,0,0,0,0,1.27A8.42,8.42,0,0,1,538.17,174.09Z"/><path class="cls-14" d="M538.13,176.07a6,6,0,0,1-.22-2,.56.56,0,0,0,.22,0l0,0a8.42,8.42,0,0,0,1.46,3.44,4.11,4.11,0,0,0,.13.73A17.76,17.76,0,0,0,538.13,176.07Z"/><path class="cls-16" d="M538.17,174.09l0,0,0,0S538.13,174.09,538.17,174.09Z"/><path class="cls-13" d="M539.31,130.19c-.73-.54-1.3-2.13-1.43-3.69a2.86,2.86,0,0,1,.09-.73,2.64,2.64,0,0,0,1,1.21l4.93,3.56a2.23,2.23,0,0,0,.93,1.15l4.71,3.41a3.8,3.8,0,0,0,1.18.57,13.09,13.09,0,0,0-2,1.3Z"/><path class="cls-14" d="M537.94,173.84a.93.93,0,0,1,.19.22.56.56,0,0,1-.22,0A.8.8,0,0,1,537.94,173.84Z"/><path class="cls-14" d="M538.9,170.85a6.36,6.36,0,0,0-.83,2.26,4.81,4.81,0,0,1,0-.93,7.65,7.65,0,0,1,.38-1.69A4.73,4.73,0,0,1,538.9,170.85Z"/><path class="cls-14" d="M537.94,173.77a5.13,5.13,0,0,1,.13-.66,4,4,0,0,0,.1.92l0,0a.93.93,0,0,0-.19-.22Z"/><path class="cls-14" d="M538,125.77a4.47,4.47,0,0,1-.12-.54,4.16,4.16,0,0,1,.06-.67,4.25,4.25,0,0,1,.32-.64c.48.13.92.29,1.4.45l-.7.28A1.54,1.54,0,0,0,538,125.77Z"/><path class="cls-13" d="M537.91,124.56a4,4,0,0,1,.22-.64h.1A4.25,4.25,0,0,0,537.91,124.56Z"/><path class="cls-14" d="M538.07,173.11a5.13,5.13,0,0,0-.13.66v.07a5,5,0,0,0-.6-.61c-4.46-4.2-10-5.92-14.2-4.8,3.69-2.9,10-2,15.31,2.06a7.65,7.65,0,0,0-.38,1.69A4.81,4.81,0,0,0,538.07,173.11Z"/><path class="cls-14" d="M537.91,174.09a6,6,0,0,0,.22,2,13.76,13.76,0,0,0-1.52-1.66A6.32,6.32,0,0,0,537.91,174.09Z"/><path class="cls-15" d="M539.31,131.69c-.95-.7-1.65-3.34-1.43-5.19.13,1.56.7,3.15,1.43,3.69l9.36,6.78a7.19,7.19,0,0,0-.92.83Z"/><path class="cls-13" d="M538,125.77a2.86,2.86,0,0,0-.09.73,4.21,4.21,0,0,1,0-1.27A4.47,4.47,0,0,0,538,125.77Z"/><path class="cls-13" d="M545,61l-8.82-1.62.23-1.72a.77.77,0,0,1,.89-.67l8.82,1.65-.23,1.69a.78.78,0,0,1-.76.67Z"/><path class="cls-14" d="M539.09,178.74a9.78,9.78,0,0,0-2.39-3.37,6.59,6.59,0,0,0-.92-.77,3.67,3.67,0,0,0,.83-.19,13.76,13.76,0,0,1,1.52,1.66,7.59,7.59,0,0,0,1.12,2.61A.67.67,0,0,1,539.09,178.74Z"/><path class="cls-13" d="M538.67,184.53a4.27,4.27,0,0,1-2.54,1.25c1.3-1.56,1.21-4.05-.1-6.37a23.42,23.42,0,0,0,3.06-.67C540.08,180.94,540,183.13,538.67,184.53Z"/><path class="cls-15" d="M535.75,185.78c.79-1.72.35-4.08-1.09-6.18l1.37-.19c1.31,2.32,1.4,4.81.1,6.37Z"/><path class="cls-13" d="M534,176.77a9.38,9.38,0,0,0-2.46-1.72,25.71,25.71,0,0,0,4.24-.45,6.59,6.59,0,0,1,.92.77,9.78,9.78,0,0,1,2.39,3.37,23.42,23.42,0,0,1-3.06.67A10,10,0,0,0,534,176.77Z"/><path class="cls-14" d="M536,186a3.14,3.14,0,0,1-.57.51,2.55,2.55,0,0,0,.35-.7h.38A1.46,1.46,0,0,0,536,186Z"/><path class="cls-15" d="M536.76,116.44a17.53,17.53,0,0,1,.13,2.26,16.63,16.63,0,0,0-2.26-.35c-.67-5-3-9.2-6-11.43l5.7-47.08a.78.78,0,0,1,.76-.67l1.11.23-5.5,45.36C533.8,107,536.16,111.28,536.76,116.44Z"/><path class="cls-15" d="M536.89,118.7a17.92,17.92,0,0,1-.54,4.78c-.54-.13-1.08-.23-1.62-.32a22.46,22.46,0,0,0-.07-4.55c0-.1,0-.16,0-.26A16.63,16.63,0,0,1,536.89,118.7Z"/><path class="cls-15" d="M534.73,123.16c-.51-.07-1-.13-1.53-.16a19.7,19.7,0,0,0-.06-4.33,4.1,4.1,0,0,0-.1-.48c.54,0,1.05.1,1.59.16,0,.1,0,.16,0,.26A22.46,22.46,0,0,1,534.73,123.16Z"/><path class="cls-15" d="M529.63,131.91A15.08,15.08,0,0,0,533.2,123c.51,0,1,.09,1.53.16a15.65,15.65,0,0,1-2.64,7.45A6.79,6.79,0,0,1,529.63,131.91Z"/><path class="cls-15" d="M551.19,44.85l-1.72,13.59a.79.79,0,0,1-.9.67l-1-.19L549.08,47a.73.73,0,0,0-.66-.86l-1-.12a.56.56,0,0,0-.48-.23l-13.84-1.68.19-1.47a.8.8,0,0,1,.86-.67l16.33,2A.76.76,0,0,1,551.19,44.85Z"/><path class="cls-13" d="M531.26,44.85a.71.71,0,0,1,.83-.64l1,.13L526,103c-.31,0-.66,0-1,0a6.21,6.21,0,0,0-.86.16Z"/><path class="cls-15" d="M536.35,123.48a12.67,12.67,0,0,1-4.26,7.13,15.65,15.65,0,0,0,2.64-7.45C535.27,123.25,535.81,123.35,536.35,123.48Z"/><path class="cls-13" d="M532.09,44.21a.71.71,0,0,0-.83.64l-7.1,58.35a7,7,0,0,0-1.66.63l7.2-59.33a.8.8,0,0,1,.86-.67l2.58.32v.19Z"/><path class="cls-13" d="M535.78,174.6a25.71,25.71,0,0,1-4.24.45,7.63,7.63,0,0,0-4.23-1c0-.06.1-.09.13-.16C529.25,172,532.82,172.34,535.78,174.6Z"/><path class="cls-13" d="M530.88,122.9a8.92,8.92,0,0,0,1.17-4.74c.32,0,.67,0,1,0a4.1,4.1,0,0,1,.1.48,19.7,19.7,0,0,1,.06,4.33c-.73-.06-1.47-.1-2.2-.1Z"/><path class="cls-13" d="M532.05,118.16a8.92,8.92,0,0,1-1.17,4.74,11.53,11.53,0,0,0-1.18,0,11.54,11.54,0,0,0,.19-3.79,9.75,9.75,0,0,0-.16-1c.41,0,.86,0,1.27,0S531.7,118.13,532.05,118.16Z"/><path class="cls-13" d="M530.88,122.9a4.74,4.74,0,0,1-2,1.88,8,8,0,0,0,.77-1.84A11.53,11.53,0,0,1,530.88,122.9Z"/><path class="cls-15" d="M527.31,174.09a7.63,7.63,0,0,1,4.23,1H531a29,29,0,0,1-4.1-.32A1.94,1.94,0,0,1,527.31,174.09Z"/><path class="cls-15" d="M533,118.19c-.67-5-3-9-5.95-11.27l5.76-47.33a.73.73,0,0,1,.89-.67l1.37.25a.78.78,0,0,0-.76.67l-5.7,47.08c3,2.23,5.31,6.4,6,11.43C534.09,118.29,533.58,118.22,533,118.19Z"/><path class="cls-13" d="M529.89,119.15a11.54,11.54,0,0,1-.19,3.79c-.54,0-1.08.06-1.59.12a10.17,10.17,0,0,0,.25-3.82,4.36,4.36,0,0,0-.19-1c.51,0,1.05-.1,1.56-.1A9.75,9.75,0,0,1,529.89,119.15Z"/><path class="cls-16" d="M533.07,177.72a10.43,10.43,0,0,1,1.59,1.88,27.78,27.78,0,0,1-3.66.22,29,29,0,0,1-4.07-.28,5.66,5.66,0,0,1-.19-4.49A8.79,8.79,0,0,1,533.07,177.72Z"/><path class="cls-15" d="M533.07,177.72a8.79,8.79,0,0,0-6.33-2.67.55.55,0,0,1,.16-.32,29,29,0,0,0,4.1.32h.54a9.38,9.38,0,0,1,2.46,1.72,10,10,0,0,1,2,2.64l-1.37.19A10.43,10.43,0,0,0,533.07,177.72Z"/><path class="cls-13" d="M527.21,125.26a7.64,7.64,0,0,0,.9-2.2c.51-.06,1-.09,1.59-.12a8,8,0,0,1-.77,1.84,3.15,3.15,0,0,1-1.3.45A2,2,0,0,1,527.21,125.26Z"/><path class="cls-14" d="M527.31,174.09a1.94,1.94,0,0,0-.41.64l-1-.19A3.94,3.94,0,0,1,527.31,174.09Z"/><path class="cls-14" d="M529.41,183.1a8.87,8.87,0,0,0,6.34,2.68,2.55,2.55,0,0,1-.35.7c-2.14,1.52-5.86.73-8.73-1.95a9,9,0,0,1-3-5.6,21.45,21.45,0,0,0,3.25.61A10,10,0,0,0,529.41,183.1Z"/><path class="cls-14" d="M536.38,174.19l.23.22a3.67,3.67,0,0,1-.83.19c-3-2.26-6.53-2.58-8.34-.67,0,.07-.1.1-.13.16a3.94,3.94,0,0,0-1.43.45,23.47,23.47,0,0,1-5.41-1.75,7.25,7.25,0,0,1,1.65-3.38C526.29,168.2,531.93,170,536.38,174.19Z"/><path class="cls-16" d="M525.88,174.54l1,.19a.55.55,0,0,0-.16.32,4.23,4.23,0,0,0-2.33.67,1.64,1.64,0,0,1,.29-.39A3,3,0,0,1,525.88,174.54Z"/><path class="cls-16" d="M525.72,134.36a8.37,8.37,0,0,0,3.91-2.45,6.79,6.79,0,0,0,2.46-1.3,8.25,8.25,0,0,1-5.73,3.72A4.86,4.86,0,0,1,525.72,134.36Z"/><path class="cls-13" d="M529.63,131.91a8.37,8.37,0,0,1-3.91,2.45s0,0,0,0c-3.7.1-7.17-2.7-9.24-7a23.41,23.41,0,0,1,2.46-1.46c2.22,4.17,5.79,6.68,9.51,6.27A7.62,7.62,0,0,0,529.63,131.91Z"/><path class="cls-14" d="M536.38,174.19c-4.45-4.24-10.09-6-14.26-4.78a1.79,1.79,0,0,1,.22-.28,5.17,5.17,0,0,1,.77-.7h0c4.17-1.12,9.74.6,14.2,4.8a5,5,0,0,1,.6.61.8.8,0,0,0,0,.25,6.32,6.32,0,0,1-1.3.32Z"/><path class="cls-13" d="M527.63,125.23a3.15,3.15,0,0,0,1.3-.45,4.5,4.5,0,0,1-3.4,2.61,5.13,5.13,0,0,1-1,0,4.43,4.43,0,0,0,2.61-2.13h0A2,2,0,0,0,527.63,125.23Z"/><path class="cls-15" d="M527.18,125.26a4.43,4.43,0,0,1-2.61,2.13,5.5,5.5,0,0,1-3.56-2.48,23.83,23.83,0,0,1,3-1A4.56,4.56,0,0,0,527.18,125.26Z"/><path class="cls-13" d="M523.74,112.14c2.68-.31,5.23,2.33,6,6-.51,0-1.05.06-1.56.1-.64-3.19-2.61-5.58-4.84-6A3.48,3.48,0,0,1,523.74,112.14Z"/><path class="cls-16" d="M528.36,119.24a10.17,10.17,0,0,1-.25,3.82,24.4,24.4,0,0,0-4.05.8,8.9,8.9,0,0,1-2.35-4.3,28.92,28.92,0,0,1,6.46-1.3A4.36,4.36,0,0,1,528.36,119.24Z"/><path class="cls-16" d="M526.74,175.05a5.66,5.66,0,0,0,.19,4.49,21.45,21.45,0,0,1-3.25-.61,4.37,4.37,0,0,1,.67-3.15s0,0,.06-.06A4.23,4.23,0,0,1,526.74,175.05Z"/><path class="cls-13" d="M525.85,110c2.89-.35,5.63,2.8,6.14,7,0,.38.06.8.06,1.18-.35,0-.7,0-1,0s-.86,0-1.27,0c-.76-3.69-3.31-6.33-6-6a3.48,3.48,0,0,0-.41.1,5.51,5.51,0,0,0-.7-.06A4.6,4.6,0,0,1,525.85,110Z"/><path class="cls-13" d="M516.45,127.36c2.07,4.3,5.54,7.1,9.24,7a7.54,7.54,0,0,1-.93.16c-3.72.42-7.32-2.13-9.55-6.27C515.63,127.93,516,127.65,516.45,127.36Z"/><path class="cls-14" d="M535.05,186.92c-2,2.13-6.18,1.5-9.3-1.43-2.2-2-3.28-4.68-3-6.81.31.09.63.19.95.25a9,9,0,0,0,3,5.6c2.87,2.68,6.59,3.47,8.73,1.95A3.75,3.75,0,0,1,535.05,186.92Z"/><path class="cls-16" d="M524.35,175.78a4.37,4.37,0,0,0-.67,3.15c-.32-.06-.64-.16-.95-.25a3.94,3.94,0,0,1,1-2.39A3.14,3.14,0,0,1,524.35,175.78Z"/><path class="cls-13" d="M523.11,168.43a5.17,5.17,0,0,0-.77.7,1.79,1.79,0,0,0-.22.28,7.42,7.42,0,0,0-2.86,1.47,3.52,3.52,0,0,1,.31-.39A7.35,7.35,0,0,1,523.11,168.43Z"/><path class="cls-16" d="M525.88,174.54a3,3,0,0,0-1.18.79,1.64,1.64,0,0,0-.29.39s-.06,0-.06.06a3.14,3.14,0,0,0-.57.51,3.94,3.94,0,0,0-1,2.39c-.67-.16-1.31-.39-2-.61a11.55,11.55,0,0,1-.28-5.28A23.47,23.47,0,0,0,525.88,174.54Z"/><path class="cls-14" d="M539.44,192.4l33.46,51.41a.56.56,0,0,1,.09.54l-10.92,7.07a.8.8,0,0,1-.83-.32l-7.44-11.59a.83.83,0,0,1-.13-.32l6.84-3.88a.7.7,0,0,0,.38-.61v0l.55-.28a1.49,1.49,0,0,0,.28-.29l2.33-1.31a.76.76,0,0,0,.28-1.08l-.7-1.08-3.28.32,2.17-2-.8-1.24-7.35,1.75,5.38-4.77L559,223.5l-2.8.38,2-1.62-.51-.77-7.45,1.12,5.19-4.59-17.13-26.29c-3.82.22-8.4-1.53-12.19-5.1a18.89,18.89,0,0,1-5.35-8.56c.67.22,1.31.45,2,.61-.26,2.13.82,4.77,3,6.81,3.12,2.93,7.26,3.56,9.3,1.43a3.75,3.75,0,0,0,.35-.44A3.14,3.14,0,0,0,536,186a1.46,1.46,0,0,1,.16-.19,4.27,4.27,0,0,0,2.54-1.25c1.34-1.4,1.41-3.59.42-5.79a.67.67,0,0,0,.16-.06,8.33,8.33,0,0,0,1.11,1.43,7.61,7.61,0,0,0,1.15,1.85c1.21,3.56.92,7.06-1,9.42l-.1.09c0,.1-.13.16-.19.26A5.09,5.09,0,0,1,539.44,192.4Z"/><path class="cls-16" d="M522.41,112.59a2,2,0,0,0,.22-.41,5.51,5.51,0,0,1,.7.06A3,3,0,0,0,522.41,112.59Z"/><path class="cls-15" d="M522.5,103.83l-.16,1.34a7.66,7.66,0,0,0-1,.07c-.32,0-.61.09-.93.15A8.35,8.35,0,0,1,522.5,103.83Z"/><path class="cls-13" d="M530.88,122.9H531c.73,0,1.47,0,2.2.1a15.08,15.08,0,0,1-3.57,8.91,7.62,7.62,0,0,1-1.21.26c-3.72.41-7.29-2.1-9.51-6.27.28-.16.54-.29.82-.42a4.94,4.94,0,0,0,4.24,2.07,1.72,1.72,0,0,0,.6-.16,5.13,5.13,0,0,0,1,0,4.5,4.5,0,0,0,3.4-2.61A4.74,4.74,0,0,0,530.88,122.9Z"/><path class="cls-16" d="M521,124.91a10.41,10.41,0,0,1-1.63-4.52c.77-.32,1.53-.57,2.33-.83a8.9,8.9,0,0,0,2.35,4.3A23.83,23.83,0,0,0,521,124.91Z"/><path class="cls-13" d="M522.34,105.17l.16-1.34a7,7,0,0,1,1.66-.63l-.26,2c-.31,0-.63,0-.95,0a7.74,7.74,0,0,0-3.57,1.44,14.19,14.19,0,0,1,1-1.25h0c.32-.06.61-.12.93-.15A7.66,7.66,0,0,1,522.34,105.17Z"/><path class="cls-15" d="M521,124.91a5.5,5.5,0,0,0,3.56,2.48,1.72,1.72,0,0,1-.6.16,4.94,4.94,0,0,1-4.24-2.07A9.78,9.78,0,0,1,521,124.91Z"/><path class="cls-13" d="M522.12,169.41a7.25,7.25,0,0,0-1.65,3.38,17.65,17.65,0,0,1-1.91-.93,9.68,9.68,0,0,1,.7-1A7.42,7.42,0,0,1,522.12,169.41Z"/><path class="cls-16" d="M520.47,172.79a11.55,11.55,0,0,0,.28,5.28,30.69,30.69,0,0,1-3.21-1.34,8.78,8.78,0,0,1,1-4.87A17.65,17.65,0,0,0,520.47,172.79Z"/><path class="cls-15" d="M522.41,112.59a9.71,9.71,0,0,0-.93,5.63c.07.48.13.93.23,1.34-.8.26-1.56.51-2.33.83C519,116.89,520.27,113.7,522.41,112.59Z"/><path class="cls-16" d="M519.38,120.39a10.41,10.41,0,0,0,1.63,4.52,9.78,9.78,0,0,0-1.28.57,9.61,9.61,0,0,1-1.87-4.39C518.36,120.83,518.87,120.61,519.38,120.39Z"/><path class="cls-15" d="M518.65,171.45c.19-.19.38-.38.61-.57a9.68,9.68,0,0,0-.7,1s-.1,0-.16-.09A2.33,2.33,0,0,1,518.65,171.45Z"/><path class="cls-13" d="M526.1,186.63c3.79,3.57,8.37,5.32,12.19,5.1L555.42,218l-5.19,4.59,7.45-1.12.51.77-2,1.62,2.8-.38.77,1.18-5.38,4.77,7.35-1.75.8,1.24-2.17,2,3.28-.32.7,1.08a.76.76,0,0,1-.28,1.08l-2.33,1.31a.79.79,0,0,0,0-.8l-.7-1.08-3.21.32,1.14-1.08,0,0,1-.92-.83-1.24L551.89,231l4.29-3.82-.06-.09,1-.86-.77-1.15-2.51.32.79-.64-.09-.13,1-.82-.51-.77-7.29,1.08,4.1-3.62,0-.07,1-.86-17.19-26.39c-3.86.23-8.44-1.56-12.23-5.12-3.59-3.41-5.63-7.61-5.82-11.34a30.69,30.69,0,0,0,3.21,1.34A18.89,18.89,0,0,0,526.1,186.63Z"/><path class="cls-15" d="M522.63,112.18a2,2,0,0,1-.22.41c-2.14,1.11-3.44,4.3-3,7.8-.51.22-1,.44-1.52.7,0-.19-.07-.38-.1-.61-.48-4.23,1.46-8,4.39-8.27A2.58,2.58,0,0,1,522.63,112.18Z"/><path class="cls-16" d="M517.86,121.09a9.61,9.61,0,0,0,1.87,4.39c-.28.13-.54.26-.82.42a18.45,18.45,0,0,1-1.72-4.49A4.56,4.56,0,0,1,517.86,121.09Z"/><path class="cls-13" d="M532,117c-.51-4.2-3.25-7.35-6.14-7a4.6,4.6,0,0,0-3.22,2.2,2.58,2.58,0,0,0-.48,0c-2.93.32-4.87,4-4.39,8.27,0,.23.06.42.1.61a4.56,4.56,0,0,0-.67.32,15.62,15.62,0,0,1-.48-2.64,17.34,17.34,0,0,1,2.64-12.1s0,0,0,0A7.74,7.74,0,0,1,523,105.2c.32,0,.64,0,.95,0l.26-2A6.21,6.21,0,0,1,525,103c.32,0,.67,0,1,0l7.14-58.67,14.32,1.72a.73.73,0,0,1,.19.63l-1.49,12L537.34,57a.77.77,0,0,0-.89.67l-.23,1.72-1.11-.23-1.37-.25a.73.73,0,0,0-.89.67l-5.76,47.33c3,2.23,5.28,6.31,5.95,11.27-.32,0-.67,0-1,0C532.05,117.78,532,117.36,532,117Z"/><path class="cls-16" d="M516.58,176.22a8,8,0,0,1,1.82-4.45c.06.06.12.06.16.09a8.78,8.78,0,0,0-1,4.87A8.93,8.93,0,0,1,516.58,176.22Z"/><path class="cls-16" d="M517.19,121.41a18.45,18.45,0,0,0,1.72,4.49,23.41,23.41,0,0,0-2.46,1.46,18,18,0,0,1-1.56-4.68A19.77,19.77,0,0,1,517.19,121.41Z"/><path class="cls-15" d="M535.59,193.19l17.19,26.39-1,.86-17.16-26.32c-3.85.25-8.46-1.53-12.25-5.1-4.08-3.85-6.18-8.75-5.83-12.8a8.93,8.93,0,0,0,1,.51c.19,3.73,2.23,7.93,5.82,11.34C527.15,191.63,531.73,193.42,535.59,193.19Z"/><path class="cls-13" d="M516.71,118.77a15.62,15.62,0,0,0,.48,2.64,19.77,19.77,0,0,0-2.3,1.27,15.82,15.82,0,0,1-.28-1.72c-.73-6.14,1.3-11.71,4.74-14.29A17.34,17.34,0,0,0,516.71,118.77Z"/><path class="cls-16" d="M514.89,122.68a18,18,0,0,0,1.56,4.68c-.41.29-.82.57-1.24.89a17.91,17.91,0,0,1-1.75-4.61C513.91,123.29,514.42,123,514.89,122.68Z"/><path class="cls-13" d="M519.38,106.64s0,0,0,0c-3.44,2.58-5.47,8.15-4.74,14.29a15.82,15.82,0,0,0,.28,1.72c-.47.32-1,.61-1.43,1a17.82,17.82,0,0,1-.48-2.58c-.89-7.61,2.39-14.36,7.42-15.67A14.19,14.19,0,0,0,519.38,106.64Z"/><path class="cls-16" d="M504.93,149a26,26,0,0,0,13.47,22.79,8,8,0,0,0-1.82,4.45,30.8,30.8,0,0,1-3.12-52.58,17.91,17.91,0,0,0,1.75,4.61A26,26,0,0,0,504.93,149Z"/><path class="cls-17" d="M328.41,222.42a87.64,87.64,0,0,0,26,20.56,101.17,101.17,0,0,0,24.4,9c25.44,5.79,53.8,3.83,77.8-6.67A90.06,90.06,0,0,0,485.07,226,71.18,71.18,0,0,0,502.5,195c.61-2.14,1.08-4.32,1.48-6.49a82.6,82.6,0,0,0,1.13-10.29c.17-2.52.17-5.05.09-7.62s-.31-5.31-.61-8c0-.09,0-.22,0-.31a.47.47,0,0,1,0-.21v-.27l0,0a97,97,0,0,0-1.83-10.37,116.53,116.53,0,0,0-7-20.82c-.92-2.09-1.92-4.18-3-6.19-1.87-3.66-4-7.23-6.18-10.76a125,125,0,0,0-12.85-17.07c-.92-1-1.88-2.14-2.88-3.14-15.29-15.94-34.85-27.31-57.63-28.27-19.26-.83-38.08,5.92-53.41,17.29a109.08,109.08,0,0,0-27.19,30,131,131,0,0,0-18,48.49C311,183,313.56,204.82,328.41,222.42Z"/><path class="cls-17" d="M328.41,222.42a87.64,87.64,0,0,0,26,20.56,101.17,101.17,0,0,0,24.4,9c25.44,5.79,53.8,3.83,77.8-6.67A90.06,90.06,0,0,0,485.07,226,71.18,71.18,0,0,0,502.5,195c.61-2.14,1.08-4.32,1.48-6.49a82.6,82.6,0,0,0,1.13-10.29c.17-2.52.17-5.05.09-7.62s-.31-5.31-.61-8c0-.09,0-.22,0-.31a.47.47,0,0,1,0-.21v-.27l0,0a97,97,0,0,0-1.83-10.37,116.53,116.53,0,0,0-7-20.82c-.92-2.09-1.92-4.18-3-6.19-1.87-3.66-4-7.23-6.18-10.76a125,125,0,0,0-12.85-17.07c-.92-1-1.88-2.14-2.88-3.14-15.29-15.94-34.85-27.31-57.63-28.27-19.26-.83-38.08,5.92-53.41,17.29a109.08,109.08,0,0,0-27.19,30,131,131,0,0,0-18,48.49C311,183,313.56,204.82,328.41,222.42Z"/><path class="cls-18" d="M485.33,213.35a64.54,64.54,0,0,1-6.22,7.44,82.62,82.62,0,0,1-26.21,17.88c-22.12,9.65-48.23,11.47-71.67,6.15-17.52-4-34.8-13.44-46.45-27.26-13.69-16.22-16.09-36.34-12.83-56.65a120.82,120.82,0,0,1,16.63-44.7,100.4,100.4,0,0,1,25.05-27.59c14.15-10.5,31.49-16.7,49.21-16,33.07,1.38,58.82,26.65,73.3,54.61C499.86,153.77,503.47,187.9,485.33,213.35Z"/><path d="M453.47,87.61c9.83-3.75,21.68,4.46,29.6,16.39.92,1.18,1.45,2,1.45,2,.53-1.66-.46-5.13-.46-5.13a11.25,11.25,0,0,1,2.06,7.86l1.59,3.36c.29.15.26-4.54.26-4.54,2.4,5.67,1.07,7.26.95,7.47.35.85.65,1.65,1,2.49.53.2,1.2-2.28,1.2-2.28a12.1,12.1,0,0,1-.08,5.51c3.92,12.11,3.88,24.75-.53,32.89-6.25,11.55-21.22,12-34.75-5.13C437.79,125.75,436.89,94,453.47,87.61Z"/><path class="cls-5" d="M457.25,142.9c11.19,15.15,24.32,15.85,30.1,6.1,4.81-8.12,4-22.82-1.74-35.56-6.77-14.88-19.83-25.91-30-21.33C442.55,98,443.16,123.82,457.25,142.9Z"/><path class="cls-17" d="M433.49,77.13c-1.12-.75-1.8-1.18-1.8-1.18,5.84-12.11.42-15.06.42-15.06A16.87,16.87,0,0,1,424,65.17c-4-16.62-9.86-15-9.86-15-1.91,8.58-6.7,9.4-6.7,9.4-8-6.59-13.18-2.94-13.18-2.94a24.08,24.08,0,0,1,0,12c4.61.5,9.6-.94,14.22.09A125.83,125.83,0,0,1,433.49,77.13Z"/><path d="M459.45,149.11s-14.9-4.42-17.53-3-5.95,13.56-1.23,24.59c0,0,.88,3.15,5,1s6.47-3.5,10.6-9.1l4.53-8.92"/><path class="cls-19" d="M446.12,147.49c-1.65-.15-3.16-.2-3.58.78-.6,1.4-1,2.76-.55,3s3.53.14,5.35.45,5.17,1.15,5.79,1.12,3.49-2,3.25-2.66C456,149.06,450.61,147.89,446.12,147.49Z"/><path class="cls-20" d="M446.34,152.91c-1.73-.22-4.34-.74-5.06.1s-1.17,5.84-1,7.92.79,6.72,2.78,8.18,7.43-3.33,7.43-3.33-1.47-1.19-2.68-2.26a36.18,36.18,0,0,1-3.07-3.38c-1-1.13.11-2.35,2-3.37s5.13-2.62,5.35-2.8S448.92,153.26,446.34,152.91Z"/><path class="cls-21" d="M449,157.33s2.33-1.14,3.75-2a10.73,10.73,0,0,0,2.39-1.72,11.32,11.32,0,0,1-1.69,8,3.46,3.46,0,0,0-1.39-3.14A4.8,4.8,0,0,0,449,157.33Z"/><path class="cls-22" d="M449.9,161.44a16.54,16.54,0,0,0-1.17-2.39c-.53-.78-.48-1.19-1.22-1.06s-1.84.82-1.7,1.45,4.61,4.69,5.58,5.21,1.56-3.79.63-4.61a9.66,9.66,0,0,0-2.32-1.4Z"/><path d="M416.75,89.48c-13.33-2.55-27.09,7.09-34.76,22.81-1.12,1.8-1.73,3-1.73,3-2.21-1.68-2.35-6.22-2.35-6.22a8.59,8.59,0,0,0,.75,10.31l-1.22,5c-.54.37-3.7-5.33-3.7-5.33-1.65,8.64,2.57,9.59,3,9.75-.22,1.31-.36,2.52-.49,3.81-1.09.69-4.48-1.83-4.48-1.83a10.29,10.29,0,0,0,4.16,6.78c-.62,19.54,8.73,35.16,23.27,37.94,17,3.26,34.74-13.35,39.59-37.11S433.77,92.74,416.75,89.48Z"/><ellipse class="cls-5" cx="409.12" cy="129.8" rx="37.05" ry="26.78" transform="translate(202.41 505.95) rotate(-78.81)"/><ellipse class="cls-23" cx="418.91" cy="124.39" rx="16.18" ry="16.24" transform="translate(261.76 532.13) rotate(-85.46)"/><circle cx="420.1" cy="123.42" r="12.29"/><circle class="cls-5" cx="424.52" cy="119.87" r="4.71"/><ellipse class="cls-23" cx="474.16" cy="119.87" rx="12.72" ry="16.18" transform="translate(-9.67 191.28) rotate(-22.58)"/><ellipse cx="474.65" cy="118.61" rx="9.63" ry="12.29" transform="translate(-9.23 190.87) rotate(-22.52)"/><ellipse class="cls-5" cx="478.42" cy="115.91" rx="3.69" ry="4.71" transform="translate(-7.9 192.11) rotate(-22.52)"/><path class="cls-17" d="M345.34,152.49a21.66,21.66,0,0,0-9.31,2c-5.9,2.46-13.47,11.72-13.47,11.72l5.9,3.58c-.78,1.39-3.44,13.14-2.39,13.61s9.41-4,9.43-3.39-.69,10.78.13,11.78,9.3-4.87,9.3-4.87l2.1,6.64c1.75.5,6.24-5.06,7.21-6.29-.66-1.52-1.31-3.05-1.9-4.61A113.24,113.24,0,0,1,345.34,152.49Z"/><path class="cls-18" d="M331.57,166s4.2-7.09,14.29-7.31c0,0,3,15.47,5.65,20.3l-3,4.6-1-4.91s-6.26,3.88-6.35,3.92c-.25.12.55-7.09-.05-8.06s-7,1.64-7,1.64l2.36-8Z"/><path class="cls-24" d="M347.24,165.17c-.84-3.65-1.38-6.51-1.38-6.51-10.09.22-14.29,7.31-14.29,7.31l4.93,2.21,0,.08A17.51,17.51,0,0,1,347.24,165.17Z"/><path class="cls-17" d="M503.87,170.25a21.68,21.68,0,0,0,9.4-1.45c6-2.13,14.1-11,14.1-11l-5.69-3.9c.86-1.35,4.16-12.93,3.13-13.46s-9.61,3.51-9.6,2.86,1.29-10.72.52-11.76-9.55,4.35-9.55,4.35l-1.73-6.75c-1.72-.59-6.51,4.7-7.55,5.88.57,1.56,1.14,3.12,1.65,4.71A113.44,113.44,0,0,1,503.87,170.25Z"/><path class="cls-18" d="M399.26,64.43s4.21-2.1,8.64,3.26c0,0,6-1.65,8.34-9.59a21.29,21.29,0,0,1,6.25,13.05s5.44.95,8.17-2.39c0,0,2.44,3.3-.63,9.07,0,0-11.58-1.29-31.78-3Z"/><path class="cls-24" d="M431.39,70.85a7.78,7.78,0,0,0-.68-2.2c-2.42,3-7,2.54-8,2.41C425.27,73.09,428.89,72.6,431.39,70.85Z"/><path class="cls-24" d="M419.81,62.55A19.91,19.91,0,0,0,416.29,58c-2,6.6-6.41,8.84-7.86,9.41C413.18,67.77,416.52,65.55,419.81,62.55Z"/><path class="cls-24" d="M407.21,66.75c-4.15-4.3-7.9-2.43-7.9-2.43l0,1.69C402,65.73,404.72,65.56,407.21,66.75Z"/><path class="cls-5" d="M357.23,236.06a90.3,90.3,0,0,0,22.94,9.15,112.9,112.9,0,0,0,60.52-1.81C453.4,239.38,466,232.8,476,224c11.85-10.41,18.32-23.79,20.79-39.22-2.3-.8-29.52-4-41.52-4-42.61,0-79.16,19.89-94.69,48.26A60.11,60.11,0,0,0,357.23,236.06Z"/><path class="cls-18" d="M519.46,157.34s-4.54,6.89-14.62,6.63c0,0-2.22-15.6-4.68-20.55l3.25-4.45.73,4.95s6.44-3.58,6.53-3.61c.26-.11-.89,7.05-.33,8.05s7-1.31,7-1.31l-2.73,7.85Z"/><path class="cls-24" d="M503.77,157.4c.66,3.68,1.07,6.57,1.07,6.57,10.08.26,14.62-6.63,14.62-6.63l-4.82-2.44,0-.08A17.46,17.46,0,0,1,503.77,157.4Z"/><path class="cls-1" d="M364.33,112s-11.24,4.12-12.07,4.45c-9.36,3.74-21,11.2-20.68,22.64.3,9.59,10.8,18.7,20.31,14.77,7.68-3.18,9.15-15,10.24-23C363,124.72,364.33,112,364.33,112Z"/><path class="cls-5" d="M364.33,112c0,.1-12.08,3.32-12.91,3.65-9.36,3.74-21,11.2-20.68,22.65C331,147.85,340,156,349.5,152c7.68-3.18,10.08-14.86,11.79-22C362.72,124,363.33,118,364.33,112Z"/><path class="cls-25" d="M364.33,112c0,.1-12.08,3.32-12.91,3.65-9.36,3.74-21,11.2-20.68,22.65C331,147.85,340,156,349.5,152c7.68-3.18-2.65-16.87-.94-24C350,122,363.33,118,364.33,112Z"/><path class="cls-26" d="M335,133.37a54.64,54.64,0,0,0,1,6.86,13.88,13.88,0,0,0,2.5,5.63,8.93,8.93,0,0,0,5,3.12,30.24,30.24,0,0,0,3.26.67c1.14.1,2.3.14,3.53.35a26.18,26.18,0,0,1-3.46,1.21,15.63,15.63,0,0,1-3.76.22,9.61,9.61,0,0,1-7-3.57,12.22,12.22,0,0,1-2.48-7.33A15.34,15.34,0,0,1,335,133.37Z"/><path class="cls-1" d="M353.11,105.54s-10.36-6-11.14-6.44c-8.86-4.8-22.07-9-30.64-1.41-7.17,6.36-7.47,20.26,1.64,25.06,7.35,3.87,17.36-2.54,24.24-6.86C342.42,112.63,353.11,105.54,353.11,105.54Z"/><path class="cls-5" d="M353.11,105.54c-.09,0-10.28-7.17-11.07-7.59-8.86-4.8-22.06-9-30.63-1.42-7.18,6.37-7.68,18.42,1.42,23.22,7.36,3.87,17.87-1.75,24.46-5C342.8,112,347.83,108.63,353.11,105.54Z"/><path class="cls-25" d="M353.11,105.54c-.09,0-10.28-7.17-11.07-7.59-8.86-4.8-22.06-9-30.63-1.42-7.18,6.37-7.68,18.42,1.42,23.22,7.36,3.87,11.27-12.83,17.87-16.09C336.21,100.94,347.83,108.63,353.11,105.54Z"/><path class="cls-26" d="M317.88,96.66a53.06,53.06,0,0,0-4.63,5.16,13.79,13.79,0,0,0-2.73,5.52,8.87,8.87,0,0,0,.79,5.82,25.4,25.4,0,0,0,1.57,2.93c.64.94,1.36,1.87,2,2.94a25.3,25.3,0,0,1-3.14-1.88,15.66,15.66,0,0,1-2.57-2.75,9.58,9.58,0,0,1-1.75-7.68,12.23,12.23,0,0,1,4.05-6.6A15.35,15.35,0,0,1,317.88,96.66Z"/><path class="cls-1" d="M341.45,90.9s.9-6,1-6.46c.62-5.08.15-12.09-5-14.73-4.34-2.2-11,.25-11.53,5.44-.46,4.19,4.43,7.72,7.75,10.17C336.11,87.17,341.45,90.9,341.45,90.9Z"/><path class="cls-5" d="M341.45,90.9c-.05,0,1.46-6.19,1.52-6.64.62-5.08.15-12.09-5-14.73-4.34-2.2-10.13-.19-10.7,5-.46,4.19,4.15,8.1,6.92,10.61C336.47,87.24,339,89,341.45,90.9Z"/><path class="cls-25" d="M341.45,90.9c-.05,0,1.46-6.19,1.52-6.64.62-5.08.15-12.09-5-14.73-4.34-2.2-10.13-.19-10.7,5-.46,4.19,8.16,2.93,10.92,5.44C340.47,82.06,339,89,341.45,90.9Z"/><path class="cls-26" d="M339.08,72.61a27.25,27.25,0,0,0-3.3-1.22,6.86,6.86,0,0,0-3.11-.26,4.47,4.47,0,0,0-2.6,1.45A12.76,12.76,0,0,0,329,73.87c-.33.48-.63,1-1,1.48a12.92,12.92,0,0,1,.3-1.83,7.81,7.81,0,0,1,.82-1.73,4.87,4.87,0,0,1,3.3-2.25,6.26,6.26,0,0,1,3.87.68A7.82,7.82,0,0,1,339.08,72.61Z"/><path class="cls-1" d="M307.26,88.16s-.22-6.07-.25-6.52c-.33-5.11-2.09-11.92-7.67-13.54-4.67-1.36-10.72,2.27-10.32,7.48.33,4.2,5.79,6.77,9.5,8.56C301.33,85.49,307.26,88.16,307.26,88.16Z"/><path class="cls-5" d="M307.26,88.16s.3-6.35.27-6.8c-.33-5.11-2.09-11.92-7.67-13.54-4.68-1.36-10,1.68-9.59,6.89.33,4.2,5.59,7.2,8.77,9.15C301.7,85.49,304.51,86.73,307.26,88.16Z"/><path class="cls-25" d="M307.26,88.16s.3-6.35.27-6.8c-.33-5.11-2.09-11.92-7.67-13.54-4.68-1.36-10,1.68-9.59,6.89.33,4.2,8.56,1.37,11.74,3.32C304.67,79.66,304.51,86.73,307.26,88.16Z"/><path class="cls-26" d="M301.55,70.63a28.81,28.81,0,0,0-3.46-.59,6.94,6.94,0,0,0-3.12.32,4.52,4.52,0,0,0-2.28,1.91,12.82,12.82,0,0,0-.83,1.47c-.23.53-.44,1.09-.73,1.65a14.36,14.36,0,0,1,0-1.86,7.67,7.67,0,0,1,.49-1.85,4.86,4.86,0,0,1,2.82-2.83,6.19,6.19,0,0,1,3.92,0A7.78,7.78,0,0,1,301.55,70.63Z"/><path class="cls-16" d="M649.59,289.16,535.1,261.41a13.28,13.28,0,0,0,.14-1.9c0-10.81-12.72-19.58-28.41-19.58s-28.41,8.77-28.41,19.58,12.72,19.58,28.41,19.58c10,0,18.8-3.58,23.86-9L620,291.76a1.47,1.47,0,0,1,1.06,1.87l-6.55,21.14a1.47,1.47,0,0,0,1.06,1.87L641.38,323a1.47,1.47,0,0,0,1.79-1.09l7.5-31A1.47,1.47,0,0,0,649.59,289.16ZM506.83,269.77c-8.22,0-14.89-4.59-14.89-10.26s6.67-10.26,14.89-10.26,14.89,4.59,14.89,10.26S515.05,269.77,506.83,269.77Z"/><path class="cls-1" d="M653.29,293.67,538.8,265.92a13.28,13.28,0,0,0,.14-1.9c0-10.81-12.71-19.58-28.4-19.58s-28.41,8.77-28.41,19.58,12.72,19.58,28.41,19.58c10,0,18.79-3.58,23.85-9l89.35,21.65a1.48,1.48,0,0,1,1.06,1.87l-6.55,21.14a1.48,1.48,0,0,0,1,1.87l25.79,6.39a1.46,1.46,0,0,0,1.78-1.09l7.51-31A1.48,1.48,0,0,0,653.29,293.67ZM510.54,274.28c-8.23,0-14.89-4.59-14.89-10.26s6.66-10.26,14.89-10.26,14.89,4.59,14.89,10.26S518.76,274.28,510.54,274.28Z"/><path class="cls-13" d="M650.63,286.27,535.44,258.36a13.56,13.56,0,0,0,.14-1.92c0-10.87-12.79-19.69-28.58-19.69s-28.58,8.82-28.58,19.69,12.8,19.7,28.58,19.7c10.08,0,18.91-3.6,24-9l89.89,21.78a1.5,1.5,0,0,1,1.07,1.89L615.37,312a1.48,1.48,0,0,0,1.06,1.88l25.94,6.43a1.48,1.48,0,0,0,1.8-1.09l7.55-31.2A1.49,1.49,0,0,0,650.63,286.27ZM507,266.77c-8.27,0-15-4.62-15-10.33s6.71-10.32,15-10.32,15,4.62,15,10.32S515.28,266.77,507,266.77Z"/><path class="cls-13" d="M567.18,311.17l-112.5-27.26a13.39,13.39,0,0,0,.14-1.9c0-10.82-12.73-19.6-28.43-19.6S396.64,258.77,398,282c.61,10.8,12.73,19.59,28.43,19.59,9.5,0,17.89-3.22,23.05-8.15a2.12,2.12,0,0,1,2-.56l68.76,16.67L519,322.25a1.34,1.34,0,0,0,2.28.82l7.74-11.36.35.08A2.17,2.17,0,0,1,531,314.2l2.93-2.26.83,2.9a2.48,2.48,0,0,1,2.68-1.09,3.59,3.59,0,0,1,2.59,4.56l-5.22,16.85a3.6,3.6,0,0,0,2.58,4.56l1.66.41a2.12,2.12,0,0,0,2.53-1.41l6.8-21a2.11,2.11,0,0,1,2.47-1.42l3.56.77,3,.57a2.13,2.13,0,0,1,1.66,2.62l-5.47,21.31a2.11,2.11,0,0,0,1.54,2.59l3.77.94a3.61,3.61,0,0,0,4.37-2.65l6.5-26.89A3.6,3.6,0,0,0,567.18,311.17Zm-140.79-18.9c-8.23,0-14.9-4.59-14.9-10.26s6.67-10.27,14.9-10.27,14.9,4.59,14.9,10.27S434.62,292.27,426.39,292.27Z"/><path class="cls-1" d="M567.69,313.46,455.18,286.2a13.42,13.42,0,0,0,.14-1.91c0-10.82-12.73-19.59-28.43-19.59s-29.74-3.65-28.42,19.59c.61,10.81,12.72,19.6,28.42,19.6,9.5,0,17.89-3.22,23.05-8.15a2.12,2.12,0,0,1,2-.56l68.76,16.66-1.14,12.69a1.35,1.35,0,0,0,2.29.83L529.56,314l.35.08a2.15,2.15,0,0,1,1.62,2.4l2.93-2.25.84,2.9A2.47,2.47,0,0,1,538,316a3.61,3.61,0,0,1,2.59,4.56l-5.22,16.85a3.6,3.6,0,0,0,2.57,4.56l1.66.41a2.12,2.12,0,0,0,2.53-1.41l6.8-21a2.13,2.13,0,0,1,2.47-1.43l3.56.78,3,.57a2.13,2.13,0,0,1,1.67,2.62l-5.48,21.31a2.12,2.12,0,0,0,1.55,2.59l3.77.93a3.59,3.59,0,0,0,4.36-2.64l6.51-26.89A3.61,3.61,0,0,0,567.69,313.46Zm-140.8-18.9c-8.23,0-14.9-4.6-14.9-10.27S418.66,274,426.89,274s14.9,4.6,14.9,10.27S435.12,294.56,426.89,294.56Z"/><path class="cls-14" d="M568.09,305.47,455,278.06a13.56,13.56,0,0,0,.14-1.92c0-10.88-12.79-19.7-28.58-19.7S398,265.26,398,276.14s12.8,19.7,28.58,19.7c9.55,0,18-3.24,23.18-8.19a2.12,2.12,0,0,1,2-.56l69.14,16.75-1.15,12.76a1.35,1.35,0,0,0,2.29.83L529.76,306l.35.08a2.17,2.17,0,0,1,1.63,2.42l3-2.28.84,2.92a2.47,2.47,0,0,1,2.69-1.09,3.61,3.61,0,0,1,2.6,4.58l-5.24,16.94a3.62,3.62,0,0,0,2.58,4.59l1.68.41a2.13,2.13,0,0,0,2.54-1.42L549.21,312a2.13,2.13,0,0,1,2.49-1.43l3.58.78,3,.57a2.14,2.14,0,0,1,1.68,2.63L554.48,336a2.14,2.14,0,0,0,1.56,2.6l3.79.94a3.61,3.61,0,0,0,4.38-2.66l6.55-27A3.62,3.62,0,0,0,568.09,305.47Zm-141.55-19c-8.27,0-15-4.63-15-10.33s6.71-10.32,15-10.32,15,4.62,15,10.32S434.82,286.47,426.54,286.47Z"/><path class="cls-1" d="M88.43,291l3.92,16.21a2.19,2.19,0,0,0,2.63,1.6l2.27-.57a1.29,1.29,0,0,0,.94-1.56l-3.3-12.84a1.28,1.28,0,0,1,1-1.58l1.82-.34,2.14-.47a1.27,1.27,0,0,1,1.49.86l4.1,12.68a1.28,1.28,0,0,0,1.53.85l1-.25a2.17,2.17,0,0,0,1.55-2.75l-3.15-10.15a2.17,2.17,0,0,1,1.56-2.75,1.49,1.49,0,0,1,1.62.66l.5-1.75,1.77,1.36a1.3,1.3,0,0,1,1-1.45l.21-.05,4.66,6.84a.81.81,0,0,0,1.38-.49l-.69-7.65,41.44-10a1.3,1.3,0,0,1,1.19.33c3.11,3,8.16,4.91,13.89,4.91,9.46,0,16.76-5.29,17.13-11.8.8-14-7.67-11.81-17.13-11.81s-17.13,5.29-17.13,11.81a8.77,8.77,0,0,0,.08,1.15L90,288.36A2.16,2.16,0,0,0,88.43,291Zm77.47-20.19c0-3.42,4-6.19,9-6.19s9,2.77,9,6.19-4,6.19-9,6.19S165.9,274.2,165.9,270.78Z"/><path class="cls-13" d="M89.6,288.46l3.87,16a2.14,2.14,0,0,0,2.6,1.58l2.25-.55a1.27,1.27,0,0,0,.92-1.55L96,291.26a1.27,1.27,0,0,1,1-1.56l1.8-.34,2.12-.46a1.26,1.26,0,0,1,1.47.85l4,12.54a1.28,1.28,0,0,0,1.51.84l1-.25a2.15,2.15,0,0,0,1.54-2.72l-3.11-10a2.14,2.14,0,0,1,1.54-2.72,1.47,1.47,0,0,1,1.6.65l.49-1.73,1.75,1.34a1.28,1.28,0,0,1,1-1.43l.21-.05,4.61,6.77a.8.8,0,0,0,1.36-.49l-.68-7.56,41-9.93a1.28,1.28,0,0,1,1.18.33c3.07,2.94,8.07,4.86,13.73,4.86,9.36,0,16.58-5.24,16.94-11.68.79-13.85-7.58-11.67-16.94-11.67s-16.94,5.22-16.94,11.67a8.74,8.74,0,0,0,.08,1.14l-67,16.24A2.14,2.14,0,0,0,89.6,288.46Zm76.59-20c0-3.38,4-6.12,8.88-6.12s8.88,2.74,8.88,6.12-4,6.12-8.88,6.12S166.19,271.87,166.19,268.49Z"/><path class="cls-16" d="M89.05,285.07l3.89,16.11a2.16,2.16,0,0,0,2.62,1.59l2.26-.56a1.27,1.27,0,0,0,.92-1.55l-3.28-12.77a1.28,1.28,0,0,1,1-1.57l1.81-.34,2.13-.46a1.26,1.26,0,0,1,1.48.85L106,299a1.28,1.28,0,0,0,1.52.85l1-.25a2.16,2.16,0,0,0,1.54-2.73l-3.13-10.09a2.16,2.16,0,0,1,1.55-2.74,1.49,1.49,0,0,1,1.61.66l.5-1.74,1.75,1.35a1.3,1.3,0,0,1,1-1.44l.21,0,4.63,6.81a.81.81,0,0,0,1.37-.5l-.68-7.6,41.19-10a1.28,1.28,0,0,1,1.18.33c3.09,3,8.12,4.88,13.81,4.88,9.41,0,17-5.25,17-11.73s-7.62-11.74-17-11.74-17,5.25-17,11.74a8.74,8.74,0,0,0,.08,1.14l-67.4,16.33A2.16,2.16,0,0,0,89.05,285.07Zm77-20.07c0-3.4,4-6.16,8.93-6.16s8.93,2.76,8.93,6.16-4,6.15-8.93,6.15S166.05,268.39,166.05,265Z"/><path class="cls-1" d="M331.68,266.67l-69-10.51a7.49,7.49,0,0,0,0-1.16c-.56-6.49-8.66-11.1-18.08-10.28s-18.05-.64-16.05,13.24c.93,6.46,8.66,11.1,18.09,10.29,5.7-.5,10.57-2.87,13.41-6.1a1.27,1.27,0,0,1,1.15-.43l42.16,6.42,0,7.68a.82.82,0,0,0,1.42.38l4.05-7.23.22,0a1.31,1.31,0,0,1,1.1,1.36l1.64-1.51.65,1.7a1.48,1.48,0,0,1,1.55-.79,2.17,2.17,0,0,1,1.8,2.6l-2.26,10.39a2.16,2.16,0,0,0,1.78,2.6l1,.17a1.29,1.29,0,0,0,1.45-1l3-13a1.28,1.28,0,0,1,1.41-1l2.18.28,1.84.18a1.29,1.29,0,0,1,1.14,1.49l-2.18,13.08a1.28,1.28,0,0,0,1.06,1.47l2.32.37a2.18,2.18,0,0,0,2.48-1.82l2.51-16.48A2.17,2.17,0,0,0,331.68,266.67Zm-85.52-4c-4.94.43-9.18-2-9.48-5.39s3.47-6.51,8.41-6.94,9.19,2,9.48,5.39S251.1,262.22,246.16,262.65Z"/><path class="cls-13" d="M330.32,264.29,262.13,253.9a7.23,7.23,0,0,0,0-1.14c-.55-6.42-8.56-11-17.88-10.17s-17.85-.63-15.87,13.1c.92,6.38,8.56,11,17.88,10.16,5.64-.49,10.46-2.83,13.27-6a1.25,1.25,0,0,1,1.14-.43l41.68,6.35,0,7.59a.8.8,0,0,0,1.4.37l4-7.14.21,0A1.28,1.28,0,0,1,309,268l1.62-1.5.65,1.68a1.47,1.47,0,0,1,1.53-.78,2.14,2.14,0,0,1,1.78,2.57l-2.23,10.27a2.14,2.14,0,0,0,1.76,2.58l1,.16a1.27,1.27,0,0,0,1.43-1l2.95-12.84a1.25,1.25,0,0,1,1.39-1l2.16.27,1.82.19a1.26,1.26,0,0,1,1.12,1.46L323.85,283a1.26,1.26,0,0,0,1,1.46l2.28.36a2.15,2.15,0,0,0,2.46-1.8l2.48-16.3A2.14,2.14,0,0,0,330.32,264.29Zm-84.56-4c-4.88.42-9.08-2-9.37-5.33s3.43-6.44,8.32-6.86,9.08,2,9.37,5.33S250.65,259.9,245.76,260.32Z"/><path class="cls-16" d="M330.57,260.85,262,250.41a7.38,7.38,0,0,0,0-1.15c-.56-6.46-8.61-11-18-10.22s-16.51,6.71-15.95,13.17,8.61,11,18,10.22c5.67-.49,10.51-2.85,13.33-6.06a1.27,1.27,0,0,1,1.15-.43l41.9,6.38,0,7.64a.8.8,0,0,0,1.4.37l4-7.18.21,0a1.28,1.28,0,0,1,1.09,1.35l1.63-1.5.65,1.69a1.48,1.48,0,0,1,1.55-.79,2.16,2.16,0,0,1,1.78,2.59l-2.25,10.32a2.16,2.16,0,0,0,1.78,2.59l1,.16a1.27,1.27,0,0,0,1.44-1l3-12.91a1.27,1.27,0,0,1,1.4-1l2.16.28,1.83.19a1.26,1.26,0,0,1,1.13,1.47l-2.16,13a1.27,1.27,0,0,0,1.06,1.46l2.29.36a2.15,2.15,0,0,0,2.47-1.8l2.49-16.39A2.16,2.16,0,0,0,330.57,260.85Zm-85-4c-4.92.43-9.13-2-9.43-5.36s3.45-6.47,8.36-6.9,9.13,2,9.43,5.36S250.47,256.44,245.56,256.86Z"/></svg>